<svg xmlns="http://www.w3.org/2000/svg" fill="none" viewBox="0 0 269.9124668435013 207.10256410256412" style="max-height: 500px" width="269.9124668435013" height="207.10256410256412">
<path fill="#000000" d="M278.786 165.169V146.936H282.002V162.4H289.821V165.169H278.786Z"/>
<path fill="#000000" d="M292.474 165.169V151.494H295.612V165.169H292.474ZM294.052 149.553C293.555 149.553 293.127 149.384 292.769 149.046C292.411 148.702 292.231 148.289 292.231 147.808C292.231 147.322 292.411 146.909 292.769 146.571C293.127 146.227 293.555 146.055 294.052 146.055C294.555 146.055 294.982 146.227 295.335 146.571C295.693 146.909 295.872 147.322 295.872 147.808C295.872 148.289 295.693 148.702 295.335 149.046C294.982 149.384 294.555 149.553 294.052 149.553Z"/>
<path fill="#000000" d="M298.978 165.169V146.936H302.116V153.755H302.246C302.408 153.423 302.636 153.07 302.931 152.696C303.226 152.316 303.624 151.993 304.127 151.726C304.63 151.453 305.271 151.316 306.052 151.316C307.08 151.316 308.008 151.586 308.834 152.126C309.667 152.66 310.325 153.453 310.811 154.503C311.302 155.548 311.548 156.83 311.548 158.349C311.548 159.851 311.308 161.127 310.828 162.178C310.348 163.228 309.695 164.029 308.869 164.581C308.043 165.133 307.106 165.409 306.06 165.409C305.297 165.409 304.665 165.279 304.162 165.018C303.659 164.756 303.254 164.442 302.948 164.074C302.648 163.7 302.414 163.347 302.246 163.014H302.064V165.169H298.978ZM302.055 158.332C302.055 159.216 302.177 159.99 302.419 160.655C302.668 161.32 303.023 161.839 303.486 162.213C303.954 162.581 304.52 162.765 305.185 162.765C305.878 162.765 306.459 162.575 306.927 162.195C307.395 161.81 307.748 161.284 307.985 160.62C308.228 159.949 308.349 159.186 308.349 158.332C308.349 157.483 308.23 156.729 307.993 156.07C307.756 155.411 307.404 154.895 306.936 154.521C306.468 154.147 305.884 153.96 305.185 153.96C304.514 153.96 303.945 154.141 303.477 154.503C303.009 154.865 302.653 155.373 302.411 156.026C302.174 156.679 302.055 157.447 302.055 158.332Z"/>
<path fill="#000000" d="M314.215 165.169V151.494H317.258V153.773H317.397C317.64 152.984 318.056 152.376 318.645 151.948C319.241 151.515 319.92 151.298 320.682 151.298C320.856 151.298 321.049 151.307 321.263 151.325C321.483 151.337 321.665 151.358 321.809 151.387V154.352C321.676 154.305 321.465 154.263 321.177 154.227C320.893 154.186 320.619 154.165 320.353 154.165C319.781 154.165 319.267 154.293 318.81 154.548C318.359 154.797 318.004 155.144 317.744 155.589C317.484 156.035 317.354 156.548 317.354 157.13V165.169H314.215Z"/>
<path fill="#000000" d="M327.487 165.445C326.644 165.445 325.884 165.291 325.208 164.982C324.537 164.667 324.005 164.204 323.612 163.593C323.225 162.982 323.032 162.228 323.032 161.332C323.032 160.56 323.17 159.922 323.448 159.418C323.725 158.913 324.104 158.51 324.583 158.207C325.063 157.904 325.603 157.676 326.204 157.521C326.811 157.361 327.438 157.245 328.086 157.174C328.866 157.091 329.499 157.017 329.984 156.952C330.469 156.88 330.822 156.774 331.042 156.631C331.267 156.483 331.38 156.254 331.38 155.946V155.892C331.38 155.221 331.186 154.702 330.799 154.334C330.412 153.966 329.854 153.782 329.126 153.782C328.357 153.782 327.747 153.954 327.297 154.299C326.852 154.643 326.551 155.049 326.395 155.518L323.465 155.091C323.696 154.26 324.078 153.566 324.609 153.008C325.141 152.444 325.791 152.022 326.56 151.743C327.328 151.459 328.178 151.316 329.108 151.316C329.75 151.316 330.389 151.393 331.024 151.548C331.66 151.702 332.241 151.957 332.767 152.313C333.293 152.663 333.715 153.141 334.032 153.747C334.356 154.352 334.518 155.109 334.518 156.017V165.169H331.501V163.29H331.397C331.206 163.67 330.938 164.026 330.591 164.359C330.25 164.685 329.819 164.949 329.299 165.151C328.785 165.347 328.181 165.445 327.487 165.445ZM328.302 163.077C328.932 163.077 329.478 162.949 329.941 162.694C330.403 162.433 330.758 162.089 331.007 161.661C331.261 161.234 331.388 160.768 331.388 160.263V158.652C331.29 158.735 331.123 158.812 330.886 158.884C330.654 158.955 330.394 159.017 330.105 159.07C329.816 159.124 329.53 159.171 329.247 159.213C328.964 159.254 328.718 159.29 328.51 159.32C328.042 159.385 327.623 159.492 327.253 159.64C326.883 159.789 326.592 159.996 326.378 160.263C326.164 160.525 326.057 160.863 326.057 161.278C326.057 161.872 326.268 162.32 326.69 162.623C327.112 162.925 327.649 163.077 328.302 163.077Z"/>
<path fill="#000000" d="M337.673 165.169V151.494H340.716V153.773H340.855C341.097 152.984 341.514 152.376 342.103 151.948C342.698 151.515 343.377 151.298 344.14 151.298C344.314 151.298 344.507 151.307 344.721 151.325C344.941 151.337 345.123 151.358 345.267 151.387V154.352C345.134 154.305 344.923 154.263 344.634 154.227C344.351 154.186 344.077 154.165 343.811 154.165C343.239 154.165 342.724 154.293 342.268 154.548C341.817 154.797 341.462 155.144 341.201 155.589C340.941 156.035 340.811 156.548 340.811 157.13V165.169H337.673Z"/>
<path fill="#000000" d="M349.708 170.297C349.28 170.297 348.884 170.261 348.52 170.19C348.162 170.125 347.876 170.048 347.662 169.959L348.39 167.448C348.847 167.585 349.254 167.65 349.612 167.644C349.971 167.638 350.286 167.522 350.557 167.297C350.835 167.077 351.069 166.709 351.259 166.193L351.528 165.454L346.7 151.494H350.028L353.097 161.821H353.236L356.313 151.494H359.651L354.32 166.825C354.071 167.549 353.742 168.169 353.331 168.685C352.921 169.208 352.418 169.605 351.823 169.878C351.233 170.157 350.528 170.297 349.708 170.297Z"/>
<path fill="#000000" d="M368.016 165.169V146.936H379.563V149.705H371.232V154.655H378.965V157.423H371.232V162.4H379.632V165.169H368.016Z"/>
<path fill="#000000" d="M385.844 157.156V165.169H382.706V151.494H385.705V153.818H385.861C386.167 153.052 386.656 152.444 387.326 151.993C388.002 151.542 388.837 151.316 389.831 151.316C390.75 151.316 391.551 151.518 392.233 151.922C392.92 152.325 393.452 152.91 393.828 153.675C394.209 154.441 394.397 155.37 394.391 156.462V165.169H391.253V156.96C391.253 156.046 391.022 155.331 390.559 154.815C390.103 154.299 389.47 154.04 388.661 154.04C388.112 154.04 387.624 154.165 387.196 154.414C386.774 154.658 386.442 155.011 386.199 155.474C385.962 155.937 385.844 156.498 385.844 157.156Z"/>
<path fill="#000000" d="M404.23 151.494V153.987H396.576V151.494H404.23ZM398.465 148.218H401.604V161.056C401.604 161.489 401.667 161.821 401.794 162.053C401.927 162.278 402.101 162.433 402.314 162.516C402.528 162.599 402.765 162.64 403.025 162.64C403.222 162.64 403.401 162.626 403.563 162.596C403.73 162.566 403.857 162.54 403.944 162.516L404.473 165.035C404.305 165.095 404.066 165.16 403.753 165.231C403.447 165.302 403.071 165.344 402.626 165.356C401.841 165.38 401.133 165.258 400.503 164.991C399.873 164.718 399.373 164.296 399.003 163.727C398.639 163.157 398.46 162.445 398.465 161.59V148.218Z"/>
<path fill="#000000" d="M406.855 165.169V151.494H409.897V153.773H410.036C410.279 152.984 410.695 152.376 411.284 151.948C411.88 151.515 412.559 151.298 413.322 151.298C413.495 151.298 413.689 151.307 413.902 151.325C414.122 151.337 414.304 151.358 414.449 151.387V154.352C414.316 154.305 414.105 154.263 413.816 154.227C413.533 154.186 413.258 154.165 412.992 154.165C412.42 154.165 411.906 154.293 411.449 154.548C410.998 154.797 410.643 155.144 410.383 155.589C410.123 156.035 409.993 156.548 409.993 157.13V165.169H406.855Z"/>
<path fill="#000000" d="M418.889 170.297C418.462 170.297 418.066 170.261 417.702 170.19C417.343 170.125 417.057 170.048 416.843 169.959L417.572 167.448C418.028 167.585 418.435 167.65 418.794 167.644C419.152 167.638 419.467 167.522 419.739 167.297C420.016 167.077 420.25 166.709 420.441 166.193L420.71 165.454L415.881 151.494H419.21L422.279 161.821H422.417L425.495 151.494H428.832L423.501 166.825C423.253 167.549 422.923 168.169 422.513 168.685C422.102 169.208 421.6 169.605 421.004 169.878C420.415 170.157 419.71 170.297 418.889 170.297Z"/>
<path fill="#000000" d="M451.787 146.936V165.169H448.927L440.561 152.749H440.414V165.169H437.198V146.936H440.076L448.432 159.364H448.589V146.936H451.787Z"/>
<path fill="#000000" d="M460.961 165.436C459.661 165.436 458.534 165.142 457.58 164.555C456.627 163.967 455.887 163.145 455.361 162.089C454.841 161.032 454.581 159.798 454.581 158.385C454.581 156.972 454.841 155.735 455.361 154.672C455.887 153.61 456.627 152.785 457.58 152.198C458.534 151.61 459.661 151.316 460.961 151.316C462.261 151.316 463.388 151.61 464.342 152.198C465.295 152.785 466.032 153.61 466.552 154.672C467.078 155.735 467.341 156.972 467.341 158.385C467.341 159.798 467.078 161.032 466.552 162.089C466.032 163.145 465.295 163.967 464.342 164.555C463.388 165.142 462.261 165.436 460.961 165.436ZM460.978 162.854C461.683 162.854 462.273 162.655 462.747 162.258C463.221 161.854 463.573 161.314 463.804 160.637C464.041 159.961 464.16 159.207 464.16 158.376C464.16 157.539 464.041 156.782 463.804 156.106C463.573 155.423 463.221 154.88 462.747 154.477C462.273 154.073 461.683 153.871 460.978 153.871C460.256 153.871 459.655 154.073 459.175 154.477C458.701 154.88 458.346 155.423 458.109 156.106C457.878 156.782 457.762 157.539 457.762 158.376C457.762 159.207 457.878 159.961 458.109 160.637C458.346 161.314 458.701 161.854 459.175 162.258C459.655 162.655 460.256 162.854 460.978 162.854Z"/>
<path fill="#000000" d="M476.654 151.494V153.987H468.999V151.494H476.654ZM470.889 148.218H474.027V161.056C474.027 161.489 474.091 161.821 474.218 162.053C474.351 162.278 474.524 162.433 474.738 162.516C474.952 162.599 475.189 162.64 475.449 162.64C475.645 162.64 475.824 162.626 475.986 162.596C476.154 162.566 476.281 162.54 476.368 162.516L476.897 165.035C476.729 165.095 476.489 165.16 476.177 165.231C475.871 165.302 475.495 165.344 475.05 165.356C474.264 165.38 473.556 165.258 472.926 164.991C472.296 164.718 471.796 164.296 471.426 163.727C471.062 163.157 470.883 162.445 470.889 161.59V148.218Z"/>
<path fill="#000000" d="M483.11 165.445C482.266 165.445 481.506 165.291 480.83 164.982C480.16 164.667 479.628 164.204 479.235 163.593C478.848 162.982 478.654 162.228 478.654 161.332C478.654 160.56 478.793 159.922 479.07 159.418C479.348 158.913 479.726 158.51 480.206 158.207C480.686 157.904 481.226 157.676 481.827 157.521C482.434 157.361 483.061 157.245 483.708 157.174C484.488 157.091 485.121 157.017 485.606 156.952C486.092 156.88 486.444 156.774 486.664 156.631C486.889 156.483 487.002 156.254 487.002 155.946V155.892C487.002 155.221 486.809 154.702 486.421 154.334C486.034 153.966 485.476 153.782 484.748 153.782C483.98 153.782 483.37 153.954 482.919 154.299C482.474 154.643 482.174 155.049 482.018 155.518L479.088 155.091C479.319 154.26 479.7 153.566 480.232 153.008C480.764 152.444 481.414 152.022 482.182 151.743C482.951 151.459 483.801 151.316 484.731 151.316C485.372 151.316 486.011 151.393 486.647 151.548C487.283 151.702 487.863 151.957 488.389 152.313C488.915 152.663 489.337 153.141 489.655 153.747C489.978 154.352 490.14 155.109 490.14 156.017V165.169H487.124V163.29H487.02C486.829 163.67 486.56 164.026 486.213 164.359C485.872 164.685 485.442 164.949 484.922 165.151C484.407 165.347 483.803 165.445 483.11 165.445ZM483.925 163.077C484.555 163.077 485.101 162.949 485.563 162.694C486.025 162.433 486.381 162.089 486.629 161.661C486.884 161.234 487.011 160.768 487.011 160.263V158.652C486.913 158.735 486.745 158.812 486.508 158.884C486.277 158.955 486.017 159.017 485.728 159.07C485.439 159.124 485.153 159.171 484.87 159.213C484.586 159.254 484.341 159.29 484.133 159.32C483.665 159.385 483.246 159.492 482.876 159.64C482.506 159.789 482.214 159.996 482 160.263C481.786 160.525 481.68 160.863 481.68 161.278C481.68 161.872 481.891 162.32 482.312 162.623C482.734 162.925 483.272 163.077 483.925 163.077Z"/>
<path fill="#000000" d="M499.945 151.494V153.987H492.29V151.494H499.945ZM494.18 148.218H497.318V161.056C497.318 161.489 497.382 161.821 497.509 162.053C497.642 162.278 497.815 162.433 498.029 162.516C498.243 162.599 498.48 162.64 498.74 162.64C498.936 162.64 499.115 162.626 499.277 162.596C499.445 162.566 499.572 162.54 499.659 162.516L500.187 165.035C500.02 165.095 499.78 165.16 499.468 165.231C499.162 165.302 498.786 165.344 498.341 165.356C497.555 165.38 496.847 165.258 496.217 164.991C495.587 164.718 495.087 164.296 494.717 163.727C494.353 163.157 494.174 162.445 494.18 161.59V148.218Z"/>
<path fill="#000000" d="M502.569 165.169V151.494H505.707V165.169H502.569ZM504.147 149.553C503.65 149.553 503.222 149.384 502.864 149.046C502.506 148.702 502.326 148.289 502.326 147.808C502.326 147.322 502.506 146.909 502.864 146.571C503.222 146.227 503.65 146.055 504.147 146.055C504.65 146.055 505.077 146.227 505.43 146.571C505.788 146.909 505.967 147.322 505.967 147.808C505.967 148.289 505.788 148.702 505.43 149.046C505.077 149.384 504.65 149.553 504.147 149.553Z"/>
<path fill="#000000" d="M514.742 165.436C513.442 165.436 512.315 165.142 511.362 164.555C510.408 163.967 509.668 163.145 509.142 162.089C508.622 161.032 508.362 159.798 508.362 158.385C508.362 156.972 508.622 155.735 509.142 154.672C509.668 153.61 510.408 152.785 511.362 152.198C512.315 151.61 513.442 151.316 514.742 151.316C516.043 151.316 517.17 151.61 518.123 152.198C519.077 152.785 519.814 153.61 520.334 154.672C520.86 155.735 521.123 156.972 521.123 158.385C521.123 159.798 520.86 161.032 520.334 162.089C519.814 163.145 519.077 163.967 518.123 164.555C517.17 165.142 516.043 165.436 514.742 165.436ZM514.76 162.854C515.465 162.854 516.054 162.655 516.528 162.258C517.002 161.854 517.355 161.314 517.586 160.637C517.823 159.961 517.941 159.207 517.941 158.376C517.941 157.539 517.823 156.782 517.586 156.106C517.355 155.423 517.002 154.88 516.528 154.477C516.054 154.073 515.465 153.871 514.76 153.871C514.037 153.871 513.436 154.073 512.957 154.477C512.483 154.88 512.127 155.423 511.89 156.106C511.659 156.782 511.544 157.539 511.544 158.376C511.544 159.207 511.659 159.961 511.89 160.637C512.127 161.314 512.483 161.854 512.957 162.258C513.436 162.655 514.037 162.854 514.76 162.854Z"/>
<path fill="#000000" d="M526.924 157.156V165.169H523.786V151.494H526.786V153.818H526.942C527.248 153.052 527.736 152.444 528.407 151.993C529.083 151.542 529.918 151.316 530.912 151.316C531.831 151.316 532.631 151.518 533.313 151.922C534.001 152.325 534.533 152.91 534.908 153.675C535.29 154.441 535.477 155.37 535.472 156.462V165.169H532.334V156.96C532.334 156.046 532.102 155.331 531.64 154.815C531.183 154.299 530.551 154.04 529.742 154.04C529.193 154.04 528.704 154.165 528.277 154.414C527.855 154.658 527.522 155.011 527.28 155.474C527.043 155.937 526.924 156.498 526.924 157.156Z"/>
<path fill="#000000" d="M554.504 151.948C554.423 151.171 554.082 150.565 553.481 150.132C552.886 149.699 552.111 149.482 551.158 149.482C550.487 149.482 549.912 149.586 549.433 149.794C548.953 150.001 548.586 150.283 548.332 150.64C548.078 150.996 547.948 151.402 547.942 151.859C547.942 152.239 548.026 152.568 548.193 152.847C548.367 153.126 548.601 153.364 548.895 153.56C549.19 153.75 549.517 153.91 549.875 154.04C550.233 154.171 550.594 154.281 550.958 154.37L552.623 154.797C553.293 154.957 553.938 155.174 554.556 155.447C555.18 155.72 555.738 156.064 556.229 156.48C556.726 156.895 557.119 157.397 557.408 157.984C557.697 158.572 557.842 159.26 557.842 160.05C557.842 161.118 557.576 162.059 557.044 162.872C556.512 163.679 555.744 164.311 554.738 164.768C553.738 165.219 552.528 165.445 551.106 165.445C549.725 165.445 548.525 165.225 547.508 164.786C546.497 164.347 545.705 163.706 545.133 162.863C544.567 162.02 544.26 160.993 544.214 159.783H547.378C547.424 160.418 547.615 160.946 547.95 161.367C548.286 161.789 548.722 162.103 549.259 162.311C549.803 162.519 550.409 162.623 551.08 162.623C551.779 162.623 552.392 162.516 552.918 162.302C553.449 162.083 553.865 161.78 554.166 161.394C554.466 161.002 554.62 160.545 554.625 160.023C554.62 159.548 554.484 159.157 554.218 158.848C553.952 158.533 553.579 158.272 553.1 158.064C552.626 157.851 552.071 157.661 551.435 157.495L549.415 156.96C547.953 156.575 546.797 155.99 545.948 155.207C545.104 154.417 544.682 153.37 544.682 152.064C544.682 150.99 544.965 150.049 545.532 149.242C546.104 148.435 546.881 147.808 547.864 147.363C548.846 146.912 549.959 146.687 551.201 146.687C552.461 146.687 553.565 146.912 554.513 147.363C555.466 147.808 556.215 148.429 556.758 149.224C557.301 150.013 557.581 150.921 557.599 151.948H554.504Z"/>
<path fill="#000000" d="M562.521 170.297C562.093 170.297 561.697 170.261 561.333 170.19C560.975 170.125 560.688 170.048 560.475 169.959L561.203 167.448C561.659 167.585 562.067 167.65 562.425 167.644C562.783 167.638 563.098 167.522 563.37 167.297C563.647 167.077 563.882 166.709 564.072 166.193L564.341 165.454L559.512 151.494H562.841L565.91 161.821H566.049L569.126 151.494H572.464L567.132 166.825C566.884 167.549 566.554 168.169 566.144 168.685C565.734 169.208 565.231 169.605 564.636 169.878C564.046 170.157 563.341 170.297 562.521 170.297Z"/>
<path fill="#000000" d="M585.159 155.109L582.298 155.429C582.217 155.132 582.076 154.854 581.874 154.592C581.677 154.331 581.411 154.121 581.076 153.96C580.741 153.8 580.331 153.72 579.845 153.72C579.192 153.72 578.643 153.865 578.198 154.156C577.759 154.447 577.542 154.824 577.548 155.287C577.542 155.684 577.684 156.008 577.973 156.257C578.267 156.506 578.753 156.711 579.429 156.871L581.7 157.37C582.96 157.649 583.896 158.091 584.509 158.697C585.127 159.302 585.439 160.094 585.445 161.074C585.439 161.934 585.194 162.694 584.708 163.353C584.229 164.006 583.561 164.516 582.706 164.884C581.851 165.252 580.868 165.436 579.758 165.436C578.129 165.436 576.817 165.086 575.823 164.385C574.829 163.679 574.236 162.697 574.046 161.439L577.106 161.136C577.244 161.753 577.539 162.219 577.99 162.534C578.441 162.848 579.027 163.005 579.75 163.005C580.495 163.005 581.093 162.848 581.544 162.534C582.001 162.219 582.229 161.83 582.229 161.367C582.229 160.976 582.082 160.652 581.787 160.397C581.498 160.142 581.047 159.946 580.435 159.809L578.163 159.32C576.886 159.047 575.941 158.587 575.329 157.94C574.716 157.287 574.413 156.462 574.418 155.465C574.413 154.622 574.635 153.892 575.086 153.275C575.543 152.652 576.175 152.171 576.984 151.832C577.799 151.488 578.738 151.316 579.802 151.316C581.362 151.316 582.59 151.657 583.486 152.34C584.388 153.022 584.945 153.945 585.159 155.109Z"/>
<path fill="#000000" d="M594.682 151.494V153.987H587.027V151.494H594.682ZM588.917 148.218H592.055V161.056C592.055 161.489 592.119 161.821 592.246 162.053C592.379 162.278 592.552 162.433 592.766 162.516C592.98 162.599 593.217 162.64 593.477 162.64C593.673 162.64 593.852 162.626 594.014 162.596C594.182 162.566 594.309 162.54 594.396 162.516L594.925 165.035C594.757 165.095 594.517 165.16 594.205 165.231C593.899 165.302 593.523 165.344 593.078 165.356C592.292 165.38 591.584 165.258 590.954 164.991C590.324 164.718 589.824 164.296 589.454 163.727C589.09 163.157 588.911 162.445 588.917 161.59V148.218Z"/>
<path fill="#000000" d="M603.058 165.436C601.723 165.436 600.57 165.151 599.599 164.581C598.634 164.006 597.891 163.192 597.371 162.142C596.851 161.085 596.591 159.842 596.591 158.412C596.591 157.005 596.851 155.77 597.371 154.708C597.897 153.64 598.631 152.809 599.573 152.215C600.515 151.616 601.622 151.316 602.893 151.316C603.714 151.316 604.488 151.453 605.217 151.726C605.951 151.993 606.598 152.408 607.158 152.972C607.725 153.536 608.17 154.254 608.493 155.127C608.817 155.993 608.979 157.026 608.979 158.225V159.213H598.065V157.041H605.971C605.965 156.423 605.835 155.874 605.581 155.394C605.326 154.907 604.971 154.524 604.514 154.245C604.064 153.966 603.538 153.827 602.937 153.827C602.295 153.827 601.732 153.987 601.246 154.307C600.761 154.622 600.382 155.037 600.111 155.554C599.845 156.064 599.709 156.625 599.703 157.236V159.133C599.703 159.928 599.845 160.611 600.128 161.18C600.411 161.744 600.807 162.178 601.316 162.48C601.824 162.777 602.419 162.925 603.101 162.925C603.558 162.925 603.971 162.86 604.341 162.73C604.711 162.593 605.032 162.394 605.303 162.133C605.575 161.872 605.78 161.548 605.919 161.163L608.849 161.501C608.664 162.296 608.311 162.991 607.791 163.584C607.277 164.172 606.618 164.629 605.815 164.955C605.011 165.276 604.093 165.436 603.058 165.436Z"/>
<path fill="#000000" d="M611.634 165.169V151.494H614.633V153.818H614.789C615.067 153.034 615.526 152.423 616.167 151.984C616.809 151.539 617.575 151.316 618.465 151.316C619.366 151.316 620.126 151.542 620.745 151.993C621.369 152.438 621.808 153.046 622.062 153.818H622.201C622.496 153.058 622.993 152.453 623.692 152.002C624.397 151.545 625.232 151.316 626.197 151.316C627.422 151.316 628.422 151.714 629.197 152.509C629.971 153.304 630.358 154.465 630.358 155.99V165.169H627.211V156.489C627.211 155.64 626.992 155.02 626.553 154.628C626.113 154.23 625.576 154.031 624.94 154.031C624.183 154.031 623.591 154.275 623.163 154.762C622.741 155.242 622.53 155.868 622.53 156.64V165.169H619.453V156.355C619.453 155.649 619.245 155.085 618.829 154.664C618.418 154.242 617.881 154.031 617.216 154.031C616.766 154.031 616.355 154.15 615.985 154.388C615.616 154.619 615.321 154.948 615.101 155.376C614.882 155.797 614.772 156.29 614.772 156.854V165.169H611.634Z"/>
<path fill="#000000" d="M277.615 129.776V23.5955H305.683V106.549H347.483V129.776H277.615Z"/>
<path fill="#000000" d="M358.829 129.776V23.5955H433.342V46.8224H386.898V65.0721H429.506V88.299H386.898V106.549H433.141V129.776H358.829Z"/>
<path fill="#000000" d="M536.719 23.5955V129.776H513.295L475.938 73.9895H475.332V129.776H447.263V23.5955H471.091L507.843 79.1741H508.651V23.5955H536.719Z"/>
<path fill="#000000" d="M605.729 56.7768C605.46 53.3204 604.198 50.6244 601.943 48.6888C599.722 46.7533 596.34 45.7855 591.796 45.7855C588.902 45.7855 586.529 46.1484 584.678 46.8742C582.861 47.5655 581.514 48.516 580.639 49.7257C579.764 50.9355 579.31 52.318 579.276 53.8734C579.209 55.1523 579.428 56.3102 579.933 57.3471C580.471 58.3494 581.312 59.2654 582.457 60.0949C583.601 60.8899 585.065 61.6157 586.849 62.2724C588.633 62.9291 590.753 63.5167 593.21 64.0352L601.691 65.9016C607.412 67.1459 612.309 68.7877 616.381 70.827C620.454 72.8662 623.786 75.2684 626.377 78.0335C628.969 80.7641 630.87 83.8402 632.082 87.262C633.327 90.6839 633.966 94.4168 634 98.4607C633.966 105.443 632.267 111.353 628.901 116.192C625.536 121.031 620.723 124.712 614.463 127.235C608.237 129.758 600.748 131.02 591.998 131.02C583.012 131.02 575.17 129.655 568.473 126.924C561.809 124.193 556.626 119.994 552.924 114.326C549.256 108.622 547.405 101.33 547.371 92.4466H574.026C574.194 95.6956 574.985 98.4262 576.399 100.638C577.812 102.85 579.798 104.527 582.356 105.667C584.947 106.808 588.027 107.378 591.594 107.378C594.59 107.378 597.097 106.998 599.116 106.238C601.136 105.477 602.667 104.423 603.71 103.075C604.753 101.727 605.292 100.189 605.326 98.4607C605.292 96.8362 604.77 95.4191 603.761 94.2094C602.785 92.9651 601.169 91.859 598.914 90.8912C596.659 89.8889 593.614 88.9557 589.777 88.0916L579.478 85.8104C570.324 83.7711 563.105 80.3666 557.821 75.5968C552.571 70.7924 549.963 64.2426 549.996 55.9472C549.963 49.2073 551.713 43.3142 555.246 38.2678C558.814 33.187 563.744 29.2294 570.038 26.3952C576.365 23.5609 583.618 22.1438 591.796 22.1438C600.143 22.1438 607.362 23.5782 613.453 26.447C619.545 29.3158 624.24 33.3598 627.538 38.5789C630.87 43.7635 632.553 49.8294 632.586 56.7768H605.729Z"/>
<path fill="#000000" d="M6.33299 127.201C4.23133 90.94 2.12407 54.6331 0 18.0212C1.26099 20.6342 2.31462 23.0229 3.53078 25.3251C9.3986 36.3415 18.0406 44.5491 28.3303 51.0761C38.7041 57.6606 49.9745 62.2191 61.3459 66.5646C73.9782 71.3706 86.6834 76.0903 99.1981 81.2014C108.747 85.0888 117.739 90.2896 125.926 96.6611C126.284 96.8702 126.582 97.1733 126.788 97.5394C126.995 97.9055 127.104 98.3215 127.102 98.7447C127.069 131.214 127.06 163.682 127.074 196.148C127.074 196.35 127.074 196.551 127.035 196.925C126.867 196.815 126.713 196.683 126.576 196.534C120.652 186.893 112.772 179.083 104.315 171.882C86.0588 156.2 65.5484 143.516 43.5127 134.28C35.4535 130.931 27.187 128.185 18.4946 127.253C14.5715 126.832 10.5643 127.201 6.33299 127.201Z"/>
<path fill="#000000" d="M267.807 18.2916C265.692 54.6215 263.581 90.9726 261.474 127.345C259.636 127.166 257.932 126.896 256.223 126.85C249.8 126.694 243.562 127.92 237.42 129.728C221.459 134.378 206.764 141.93 192.613 150.667C180.508 158.041 169.12 166.591 158.605 176.199C151.28 182.968 148.444 186.289 140.845 197C140.778 196.594 140.733 196.185 140.71 195.774C140.71 163.458 140.701 131.138 140.682 98.8137C140.672 98.3923 140.77 97.9756 140.967 97.6057C141.164 97.2358 141.452 96.9259 141.803 96.7071C150.653 89.8902 160.374 84.3569 170.694 80.2631C182.273 75.5665 194.008 71.2728 205.693 66.8409C216.611 62.7025 227.433 58.3743 237.504 52.2962C248.416 45.7117 257.68 37.3775 263.962 25.9294C264.641 24.6977 265.274 23.4315 265.879 22.1595C266.484 20.8875 267 19.5924 267.56 18.3032L267.807 18.2916Z"/>
<path fill="#000000" d="M13.5459 10.2623C15.3926 15.994 18.0353 21.4219 21.3921 26.3782C27.882 35.8924 36.4904 42.9776 46.0907 48.9232C56.4981 55.3754 67.6229 60.3195 78.7309 65.3154C84.3353 67.8307 89.8948 70.3804 95.3704 73.195C93.9637 72.6942 92.5681 72.1877 91.1558 71.6985C78.658 67.3357 66.1041 63.1455 53.6847 58.564C42.5151 54.4487 31.8275 49.2283 22.5018 41.5157C19.3633 38.9199 16.5779 35.8751 13.6692 32.9915C13.295 32.6061 13.0683 32.0954 13.0303 31.5526C12.9911 24.4616 13.0303 17.3648 13.0303 10.2565L13.5459 10.2623Z"/>
<path fill="#000000" d="M253.88 10.0782C253.88 17.175 253.88 24.2717 253.846 31.3743C253.799 32.0174 253.542 32.6255 253.118 33.101C246.717 40.5834 238.916 46.2067 230.38 50.817C218.465 57.2518 205.721 61.5283 193.01 65.8508C186.235 68.1531 179.476 70.5072 172.711 72.8325C172.601 72.873 172.482 72.8826 172.367 72.8603C172.251 72.8381 172.144 72.7848 172.055 72.7059C174.191 71.7044 176.326 70.6971 178.467 69.7014C189.009 64.8033 199.64 60.0951 210.076 54.9611C219.396 50.3565 228.144 44.785 235.856 37.5846C243.692 30.3907 249.613 21.2648 253.062 11.0682C253.174 10.7401 253.291 10.4178 253.409 10.0955L253.88 10.0782Z"/>
<path fill="#000000" d="M28.4255 6.64201C29.58 9.74433 30.5832 12.8524 31.8722 15.8511C36.182 25.8257 43.081 33.6304 51.3924 40.2552C59.7037 46.88 69.007 52.1407 78.3832 57.1309C85.4672 60.9009 92.5736 64.6133 99.68 68.3833C99.7806 68.4299 99.8702 68.4983 99.9427 68.5837C100.015 68.6691 100.069 68.7696 100.1 68.8783L91.6321 65.327C81.0677 60.8664 70.4194 56.6129 59.9727 51.8875C49.7223 47.2829 40.2228 41.3085 32.2365 33.0894C31.1156 31.9037 30.09 30.5627 28.9299 29.3942C27.4783 27.9381 27.03 26.2919 27.2093 24.2141C27.6969 18.3548 28.022 12.5013 28.4255 6.64201Z"/>
<path fill="#000000" d="M238.457 6.53278C238.883 12.8986 239.264 19.0687 239.723 25.2388C239.775 25.835 239.705 26.4357 239.518 27.0026C239.33 27.5695 239.03 28.09 238.636 28.531C232.947 35.6335 226.004 41.1648 218.337 45.7981C208.742 51.5998 198.469 55.8763 188.168 60.0895C181.353 62.8829 174.538 65.6878 167.723 68.5043C167.401 68.6643 167.038 68.7147 166.686 68.6482C169.091 67.3474 171.495 66.0581 173.888 64.7458C184.318 58.9901 194.865 53.4992 205.138 47.4787C213.383 42.7199 220.739 36.4932 226.861 29.0893C232.005 22.8406 235.789 15.5345 237.958 7.6609C238.025 7.41916 238.098 7.17742 238.182 6.93568C238.262 6.79345 238.354 6.65865 238.457 6.53278Z"/>
<path fill="#000000" d="M41.389 0C41.8485 1.84182 42.2576 3.70091 42.7676 5.52546C45.6595 15.8397 51.3704 24.3235 58.8467 31.6563C66.054 38.7473 74.2756 44.4166 82.6991 49.8155C88.8639 53.7869 95.1072 57.7065 101.311 61.6549C101.803 61.9382 102.229 62.3269 102.561 62.7946C100.375 61.678 98.1841 60.5786 96.0152 59.439C85.6974 54.0286 75.2788 48.837 65.118 43.1274C55.9268 37.9473 47.8004 31.3167 41.2488 22.758C39.2705 20.1794 38.5531 17.716 39.2088 14.4295C40.156 9.68682 40.5763 4.83478 41.2264 0.0402898L41.389 0Z"/>
<path fill="#000000" d="M225.668 0.264807C226.486 6.14137 227.349 12.0409 228.083 17.9578C228.11 18.6484 227.913 19.3288 227.523 19.8917C222.82 27.1842 216.656 32.9571 209.74 37.9588C200.773 44.4627 190.903 49.3608 181.084 54.3222L166.513 61.6838C166.082 61.9431 165.581 62.0541 165.084 62.0003C167.942 60.17 170.789 58.3282 173.659 56.5209C183.265 50.4429 192.999 44.5548 201.832 37.2681C210.396 30.2001 217.754 22.0846 222.008 11.4826C223.454 7.86232 224.446 4.02903 225.668 0.264807Z"/>
<path fill="#000000" d="M121.837 42.6091C117.469 46.262 114.679 51.8283 114.679 58.0642C114.679 64.8047 117.939 70.7626 122.928 74.3675C115.635 71.2618 110.685 65.2046 110.685 58.2406C110.685 51.6299 115.146 45.8365 121.837 42.6091Z"/>
<path fill="#000000" d="M146.317 42.6099C153.007 45.8372 157.469 51.6298 157.469 58.2406C157.469 65.2048 152.518 71.2619 145.226 74.3675C150.215 70.7626 153.475 64.8049 153.475 58.0642C153.475 51.8283 150.684 46.2627 146.317 42.6099Z"/>
<path fill="#000000" d="M150.623 57.7715C150.623 67.3179 143.087 75.0567 133.792 75.0567C124.496 75.0567 116.961 67.3179 116.961 57.7715C116.961 48.2251 124.496 40.4863 133.792 40.4863C143.087 40.4863 150.623 48.2251 150.623 57.7715Z"/>
</svg>