<svg width="283" height="565" viewBox="0 0 283 565" fill="none" xmlns="http://www.w3.org/2000/svg">
<path opacity="0.11" d="M0 218.947C14.2082 227.676 27.9975 237.101 41.3174 247.191C43.1245 248.24 44.6278 249.742 45.6768 251.55C46.743 253.388 47.3013 255.476 47.2959 257.602C47.1871 359.913 47.1356 462.221 47.1396 564.524H45.6396C45.6359 462.221 45.6881 359.913 45.7969 257.601C45.8021 255.74 45.3125 253.911 44.3789 252.302C43.4453 250.693 42.1009 249.36 40.4834 248.441C27.4259 238.546 13.9148 229.294 0 220.711V218.947ZM283 160.755C269.493 165.866 256.017 171.052 242.588 176.356C196.002 194.352 152.114 218.676 112.162 248.643C110.578 249.604 109.276 250.968 108.388 252.594L108.227 252.9C107.446 254.448 107.058 256.167 107.102 257.903C107.162 360.119 107.201 462.326 107.218 564.524H105.718C105.701 462.326 105.662 360.12 105.602 257.904V257.903C105.556 255.8 106.062 253.721 107.071 251.874C108.073 250.04 109.536 248.5 111.313 247.404C151.362 217.373 195.352 192.995 242.047 174.957C255.655 169.582 269.312 164.328 283 159.151V160.755ZM283 525.228C264.966 537.738 247.351 550.844 230.184 564.524H227.781C245.708 550.182 264.125 536.466 283 523.402V525.228ZM75.9932 0C118.785 0 153.476 34.6908 153.476 77.4844C153.476 120.278 118.785 154.97 75.9932 154.97C38.3965 154.97 7.05635 128.19 0 92.665V62.3027C7.05678 26.7784 38.3969 0.000176246 75.9932 0ZM75.9932 1.5C34.0295 1.5002 0.011782 35.5193 0.0117188 77.4844L0.0175781 78.4668C0.539356 119.653 33.8273 152.941 75.0117 153.463L75.9932 153.47C117.957 153.47 151.976 119.45 151.976 77.4844C151.976 35.847 118.487 2.03168 76.9756 1.50586L75.9932 1.5ZM0 116.708C6.41024 129.741 16.0198 140.918 27.8066 149.213L26.3682 151.825C16.5733 147.763 7.67834 142.55 0 136.417V134.49C7.76315 140.852 16.856 146.257 26.9434 150.44C15.7511 142.564 6.48835 132.131 0 119.992V116.708ZM133.182 9.47656C163.735 23.8299 184.383 49.7368 184.383 79.5479C184.383 110.953 161.477 138.019 128.198 151.823L126.761 149.211C148.896 133.632 163.354 107.891 163.354 78.7725C163.354 51.8311 150.978 27.7826 131.596 11.9971L133.182 9.47656ZM132.543 10.834C152.26 26.8921 164.854 51.3609 164.854 78.7725C164.854 108.4 150.141 134.59 127.624 150.438C160.539 136.784 182.883 110.158 182.883 79.5479C182.883 50.4884 162.745 25.0219 132.543 10.834ZM283 127.526C281.226 128.326 279.452 129.126 277.679 129.928L270.435 133.219C263.194 136.517 255.964 139.833 248.734 143.135C249.134 143.482 249.619 143.716 250.139 143.813C250.659 143.911 251.196 143.869 251.694 143.691C262.131 140.198 272.565 136.69 283 133.181V134.764C272.725 138.219 262.451 141.673 252.171 145.114L252.17 145.113C251.429 145.372 250.634 145.433 249.862 145.288C249.081 145.141 248.352 144.789 247.751 144.268L245.989 142.739L248.111 141.771C257.747 137.37 267.392 132.939 277.06 128.561H277.061C279.04 127.665 281.02 126.772 283 125.88V127.526ZM283 94.2939C274.326 98.885 265.658 103.495 257.009 108.143L252.955 110.301C243.492 115.328 233.994 120.293 224.497 125.297C226.085 125.589 227.725 125.367 229.178 124.664C247.118 117.444 265.059 110.243 283 103.058V104.673C265.258 111.779 247.516 118.901 229.773 126.041C228.047 126.862 226.106 127.119 224.226 126.772L219.967 125.988L223.798 123.97C233.301 118.963 242.792 114.002 252.25 108.977L256.302 106.819C265.19 102.043 274.092 97.31 283 92.5967V94.2939ZM283 55.3965C273.992 60.9317 264.969 66.4426 255.97 71.9873L251.117 74.9727C239.802 81.9548 228.55 89.034 217.26 96.0742C219.504 96.3105 221.765 95.8229 223.712 94.6826L283 65.5156V67.1875L224.399 96.0146C222.192 97.288 219.638 97.8324 217.103 97.5654L212.765 97.1094L216.466 94.8008C229.361 86.7598 242.225 78.6565 255.186 70.708C264.452 64.9987 273.737 59.3289 283 53.6348V55.3965ZM22.9688 11.9941C13.3811 19.8024 5.50924 29.6336 0 40.8359V37.5488C5.51121 27.238 13.0242 18.1584 22.0215 10.8311C13.8844 14.6533 6.47912 19.296 0 24.6055V22.6787C6.35492 17.6028 13.5425 13.1569 21.3838 9.47363L22.9688 11.9941Z" fill="#1D398A"/>
</svg>
