<svg width="782" height="756" viewBox="0 0 782 756" fill="none" xmlns="http://www.w3.org/2000/svg">
<path opacity="0.3" d="M0 463.7C52.62 485.446 102.245 513.856 147.651 548.243C149.938 549.563 151.839 551.459 153.165 553.743C154.508 556.057 155.211 558.686 155.204 561.361L155.205 561.362C155.136 626.232 155.086 691.1 155.052 755.967H153.552C153.586 691.1 153.636 626.231 153.705 561.361C153.712 558.951 153.077 556.581 151.867 554.496C150.657 552.411 148.915 550.685 146.818 549.494C101.659 515.284 52.3168 487.002 0 465.324V463.7ZM782 306.846C728.174 336.319 671.092 358.426 613.559 379.654L600.735 384.379C536.606 407.962 472.284 431.022 408.769 456.1C348.387 479.416 291.504 510.93 239.722 549.756C237.669 551.002 235.982 552.767 234.83 554.874L234.621 555.271C233.609 557.277 233.108 559.504 233.164 561.754C233.202 626.494 233.231 691.232 233.256 755.967H231.756C231.731 691.244 231.702 626.519 231.664 561.791L231.66 561.292C231.68 558.799 232.315 556.347 233.514 554.154C234.777 551.842 236.624 549.901 238.867 548.521C289.937 510.237 345.956 479.048 405.395 455.802L408.229 454.7C475.995 427.944 544.692 403.479 613.039 378.247L619.025 376.034C674.779 355.384 729.935 333.724 782 305.136V306.846ZM782 744.479C770.386 748.063 758.884 751.899 747.486 755.967H743.057C755.902 751.313 768.879 746.949 782 742.907V744.479ZM192.844 228.054C248.061 228.054 292.825 272.801 292.825 328.001C292.825 383.2 248.061 427.947 192.844 427.947C137.626 427.947 92.8625 383.2 92.8623 328.001C92.8623 272.801 137.626 228.054 192.844 228.054ZM192.844 229.554C138.454 229.554 94.3623 273.63 94.3623 328.001L94.3701 329.272C95.046 382.633 138.191 425.763 191.57 426.439L192.844 426.447C246.809 426.447 290.636 383.057 291.317 329.272L291.325 328.001C291.325 274.055 247.92 230.243 194.116 229.562L192.844 229.554ZM123.837 242.808C98.6154 263.34 82.5098 294.624 82.5098 329.67C82.51 367.549 101.327 401.033 130.132 421.296L128.694 423.908C85.6656 406.069 56.1397 371.13 56.1396 330.674C56.1398 292.27 82.7533 258.833 122.253 240.286L123.837 242.808ZM266.776 240.289C306.273 258.836 332.885 292.272 332.885 330.674C332.885 371.128 303.362 406.065 260.337 423.905L258.898 421.293C287.701 401.029 306.517 367.547 306.518 329.67C306.518 294.625 290.412 263.343 265.191 242.811L266.776 240.289ZM122.891 241.645C83.7431 260.026 57.6398 293.023 57.6396 330.674L57.6445 331.603C58.0926 370.873 86.9365 404.972 129.269 422.522C100.538 402.311 81.6081 369.115 81.0234 331.466L81.0098 329.67C81.0098 294.154 97.3342 262.45 122.891 241.645ZM266.139 241.647C291.694 262.453 308.018 294.155 308.018 329.67L308.004 331.466C307.419 369.113 288.491 402.308 259.762 422.52C302.09 404.968 330.931 370.871 331.379 331.603L331.385 330.674C331.385 293.024 305.283 260.029 266.139 241.647ZM782 220.185C738.874 257.758 690.519 287.315 639.2 311.993C578.14 341.234 515.933 368.05 454.25 395.946L444.86 400.21C435.476 404.483 426.106 408.78 416.735 413.058C417.253 413.507 417.882 413.811 418.556 413.938C419.23 414.064 419.926 414.01 420.572 413.779C455.206 402.191 489.813 390.477 524.484 378.945L539.347 374.016C612.558 349.782 685.961 325.802 754.737 290.101L758.009 288.392C766.125 284.124 774.127 279.703 782 275.11V276.847C774.35 281.294 766.581 285.579 758.706 289.719C688.86 326.436 614.167 350.829 539.818 375.439C500.175 388.551 460.637 401.955 421.048 415.201L421.047 415.2C420.158 415.512 419.204 415.586 418.278 415.412C417.343 415.236 416.471 414.815 415.752 414.191L413.989 412.662L416.112 411.693C428.602 405.991 441.101 400.251 453.631 394.579H453.632C515.348 366.667 577.512 339.872 638.553 310.641C690.173 285.817 738.752 256.067 782 218.193V220.185ZM782 96.0781C770.101 120.641 755.14 143.687 737.416 164.643L735.731 166.614C700.248 207.917 657.802 242.698 610.312 269.378L604.672 272.584C546.346 305.623 486.579 335.965 427.459 367.722L422.205 370.519C409.94 377.032 397.631 383.465 385.321 389.947C387.379 390.326 389.504 390.038 391.388 389.127C431.263 373.086 471.139 357.111 511.015 341.201C570.346 317.58 629.518 293.61 684.903 261.349L687.538 259.806C721.991 239.539 753.948 216.255 782 188.219V190.333C754.671 217.438 723.707 240.086 690.403 259.854L688.299 261.099C632.045 294.208 571.834 318.602 511.57 342.594C471.708 358.498 431.845 374.468 391.982 390.504C389.826 391.532 387.4 391.854 385.049 391.422L380.789 390.638L384.622 388.62C398.696 381.209 412.753 373.87 426.75 366.399L432.477 363.329C491.673 331.64 551.357 301.282 609.568 268.075L609.576 268.07C656.914 241.476 699.224 206.806 734.594 165.637L736.272 163.671C754.59 142.012 769.945 118.111 782 92.6055V96.0781ZM3.58496 348.842C6.6256 350.558 9.26459 352.904 11.3223 355.725L9.44238 357.952C6.29778 356.388 3.14931 354.83 0 353.271V351.598C3.37045 353.265 6.74145 354.934 10.1104 356.609C8.1675 353.946 5.67339 351.732 2.79785 350.118C1.86556 349.541 0.932588 348.964 0 348.387V346.624C1.19489 347.364 2.39049 348.102 3.58496 348.842ZM731.914 0.262695C736.401 31.6272 741.122 63.1384 745.236 94.7344L746.051 101.055L746.06 101.118L746.062 101.183C746.235 105.432 744.994 109.618 742.534 113.087C714.887 154.822 678.661 187.827 638.097 216.383L638.098 216.384C585.514 253.508 527.651 281.457 470.226 309.701L384.989 351.616C382.206 353.226 378.983 353.914 375.783 353.577L371.444 353.12L375.147 350.812C391.864 340.393 408.533 329.896 425.329 319.599C481.575 284.958 538.434 251.482 590.022 210.056L592.361 208.168C641.361 168.441 683.26 122.914 707.629 63.7939C716.066 43.232 721.817 21.5628 729.007 0L731.914 0.262695ZM730.43 0.474609C723.281 21.9135 717.476 43.7459 709.016 64.3652C684.126 124.748 641.069 170.969 590.962 211.225C539.281 252.725 482.32 286.261 426.113 320.878L419.823 324.746C405.158 333.792 390.574 342.964 375.94 352.085C378.849 352.391 381.779 351.76 384.303 350.282L469.563 308.355C527.016 280.098 584.764 252.201 637.232 215.158C677.699 186.671 713.771 153.792 741.284 112.259C743.499 109.153 744.65 105.419 744.574 101.612L744.563 101.244C740.268 67.5451 735.217 33.9442 730.43 0.474609Z" fill="url(#paint0_linear_99_2992)"/>
<defs>
<linearGradient id="paint0_linear_99_2992" x1="-590" y1="559.967" x2="977" y2="559.967" gradientUnits="userSpaceOnUse">
<stop offset="0.209853" stop-color="white" stop-opacity="0"/>
<stop offset="0.522633" stop-color="white"/>
<stop offset="0.77854" stop-color="white" stop-opacity="0"/>
</linearGradient>
</defs>
</svg>
