<svg xmlns="http://www.w3.org/2000/svg" fill="none" viewBox="0 0 81.15714285714286 61.90045248868779" style="max-height: 500px" width="81.15714285714286" height="61.90045248868779">
<path fill="url(#paint0_linear_92_64)" d="M83.5479 50.3052V44.7521H84.5117V49.462H86.855V50.3052H83.5479Z"/>
<path fill="url(#paint1_linear_92_64)" d="M87.65 50.3052V46.1404H88.5904V50.3052H87.65ZM88.1228 45.5493C87.9738 45.5493 87.8457 45.4977 87.7383 45.3947C87.6309 45.2898 87.5772 45.1642 87.5772 45.0178C87.5772 44.8696 87.6309 44.7439 87.7383 44.6409C87.8457 44.536 87.9738 44.4836 88.1228 44.4836C88.2735 44.4836 88.4016 44.536 88.5073 44.6409C88.6147 44.7439 88.6683 44.8696 88.6683 45.0178C88.6683 45.1642 88.6147 45.2898 88.5073 45.3947C88.4016 45.4977 88.2735 45.5493 88.1228 45.5493Z"/>
<path fill="url(#paint2_linear_92_64)" d="M89.599 50.3052V44.7521H90.5395V46.8291H90.5785C90.6269 46.7279 90.6954 46.6203 90.7837 46.5064C90.872 46.3907 90.9915 46.2922 91.1422 46.2109C91.2929 46.1277 91.4851 46.0861 91.7189 46.0861C92.0272 46.0861 92.3052 46.1684 92.5529 46.3329C92.8023 46.4956 92.9997 46.7369 93.1452 47.0569C93.2924 47.375 93.366 47.7655 93.366 48.2282C93.366 48.6856 93.2941 49.0742 93.1504 49.3942C93.0066 49.7141 92.8109 49.9582 92.5633 50.1263C92.3156 50.2944 92.035 50.3785 91.7215 50.3785C91.4929 50.3785 91.3033 50.3387 91.1526 50.2591C91.0019 50.1796 90.8807 50.0838 90.7889 49.9717C90.6988 49.8578 90.6287 49.7503 90.5785 49.6491H90.5239V50.3052H89.599ZM90.5213 48.2228C90.5213 48.4921 90.5577 48.728 90.6304 48.9305C90.7049 49.133 90.8114 49.2911 90.95 49.405C91.0902 49.5171 91.26 49.5731 91.4591 49.5731C91.667 49.5731 91.841 49.5153 91.9813 49.3996C92.1216 49.2821 92.2273 49.1221 92.2983 48.9197C92.371 48.7154 92.4074 48.4831 92.4074 48.2228C92.4074 47.9643 92.3719 47.7347 92.3009 47.5341C92.2299 47.3334 92.1242 47.1762 91.9839 47.0623C91.8436 46.9484 91.6687 46.8914 91.4591 46.8914C91.2582 46.8914 91.0876 46.9466 90.9474 47.0569C90.8071 47.1671 90.7006 47.3217 90.6278 47.5205C90.5568 47.7194 90.5213 47.9535 90.5213 48.2228Z"/>
<path fill="url(#paint3_linear_92_64)" d="M94.1655 50.3052V46.1404H95.0774V46.8345H95.1189C95.1917 46.5941 95.3164 46.4088 95.493 46.2786C95.6714 46.1467 95.8749 46.0807 96.1036 46.0807C96.1555 46.0807 96.2135 46.0834 96.2776 46.0888C96.3434 46.0925 96.398 46.0988 96.4413 46.1078V47.0108C96.4015 46.9963 96.3382 46.9836 96.2516 46.9728C96.1668 46.9601 96.0845 46.9538 96.0048 46.9538C95.8334 46.9538 95.6792 46.9927 95.5424 47.0704C95.4073 47.1463 95.3008 47.2521 95.2229 47.3877C95.1449 47.5232 95.106 47.6796 95.106 47.8567V50.3052H94.1655Z"/>
<path fill="url(#paint4_linear_92_64)" d="M98.1429 50.3893C97.8901 50.3893 97.6623 50.3423 97.4597 50.2483C97.2588 50.1525 97.0994 50.0115 96.9817 49.8253C96.8656 49.6391 96.8076 49.4095 96.8076 49.1366C96.8076 48.9016 96.8492 48.7073 96.9323 48.5536C97.0154 48.4 97.1289 48.277 97.2726 48.1848C97.4164 48.0927 97.5783 48.0231 97.7584 47.9761C97.9403 47.9272 98.1282 47.892 98.3222 47.8703C98.556 47.845 98.7456 47.8224 98.8911 47.8025C99.0366 47.7808 99.1423 47.7483 99.2081 47.7049C99.2756 47.6597 99.3094 47.5901 99.3094 47.4961V47.4798C99.3094 47.2756 99.2514 47.1174 99.1353 47.0053C99.0193 46.8933 98.8521 46.8372 98.6339 46.8372C98.4036 46.8372 98.2209 46.8896 98.0858 46.9945C97.9524 47.0993 97.8623 47.2232 97.8156 47.366L96.9375 47.2358C97.0068 46.9827 97.1211 46.7712 97.2804 46.6013C97.4397 46.4296 97.6346 46.3012 97.8649 46.2163C98.0953 46.1295 98.3499 46.0861 98.6287 46.0861C98.821 46.0861 99.0123 46.1096 99.2029 46.1566C99.3934 46.2036 99.5674 46.2814 99.725 46.3898C99.8826 46.4965 100.009 46.642 100.104 46.8264C100.201 47.0108 100.25 47.2412 100.25 47.5178V50.3052H99.3457V49.7331H99.3146C99.2574 49.8488 99.1769 49.9573 99.073 50.0585C98.9708 50.1579 98.8418 50.2384 98.6859 50.2998C98.5317 50.3595 98.3508 50.3893 98.1429 50.3893ZM98.3871 49.668C98.5759 49.668 98.7396 49.6292 98.8781 49.5514C99.0167 49.4719 99.1232 49.3671 99.1977 49.2369C99.2739 49.1068 99.312 48.9649 99.312 48.8112V48.3204C99.2825 48.3457 99.2323 48.3692 99.1613 48.3909C99.092 48.4126 99.0141 48.4316 98.9275 48.4479C98.8409 48.4641 98.7552 48.4786 98.6703 48.4912C98.5854 48.5039 98.5118 48.5147 98.4495 48.5238C98.3092 48.5437 98.1836 48.5762 98.0728 48.6214C97.9619 48.6666 97.8745 48.7299 97.8104 48.8112C97.7463 48.8907 97.7143 48.9938 97.7143 49.1203C97.7143 49.3011 97.7775 49.4376 97.9039 49.5298C98.0303 49.6219 98.1914 49.668 98.3871 49.668Z"/>
<path fill="url(#paint5_linear_92_64)" d="M101.195 50.3052V46.1404H102.107V46.8345H102.149C102.222 46.5941 102.346 46.4088 102.523 46.2786C102.701 46.1467 102.905 46.0807 103.133 46.0807C103.185 46.0807 103.243 46.0834 103.308 46.0888C103.373 46.0925 103.428 46.0988 103.471 46.1078V47.0108C103.431 46.9963 103.368 46.9836 103.282 46.9728C103.197 46.9601 103.114 46.9538 103.035 46.9538C102.863 46.9538 102.709 46.9927 102.572 47.0704C102.437 47.1463 102.331 47.2521 102.253 47.3877C102.175 47.5232 102.136 47.6796 102.136 47.8567V50.3052H101.195Z"/>
<path fill="url(#paint6_linear_92_64)" d="M104.802 51.8671C104.674 51.8671 104.555 51.8562 104.446 51.8345C104.339 51.8147 104.253 51.7912 104.189 51.764L104.407 50.9994C104.544 51.041 104.666 51.0609 104.773 51.059C104.881 51.0572 104.975 51.022 105.057 50.9533C105.14 50.8864 105.21 50.7743 105.267 50.6171L105.348 50.392L103.901 46.1404H104.898L105.818 49.2857H105.859L106.782 46.1404H107.782L106.184 50.8096C106.11 51.0301 106.011 51.219 105.888 51.3763C105.765 51.5354 105.614 51.6565 105.436 51.7396C105.259 51.8246 105.048 51.8671 104.802 51.8671Z"/>
<path fill="url(#paint7_linear_92_64)" d="M110.289 50.3052V44.7521H113.749V45.5953H111.253V47.1029H113.57V47.9462H111.253V49.462H113.77V50.3052H110.289Z"/>
<path fill="url(#paint8_linear_92_64)" d="M115.631 47.8649V50.3052H114.691V46.1404H115.59V46.8481H115.637C115.728 46.6149 115.875 46.4296 116.076 46.2922C116.278 46.1548 116.529 46.0861 116.826 46.0861C117.102 46.0861 117.342 46.1476 117.546 46.2705C117.752 46.3934 117.911 46.5715 118.024 46.8047C118.138 47.0379 118.195 47.3208 118.193 47.6534V50.3052H117.252V47.8052C117.252 47.5268 117.183 47.309 117.045 47.1518C116.908 46.9945 116.718 46.9159 116.476 46.9159C116.311 46.9159 116.165 46.9538 116.037 47.0297C115.91 47.1039 115.811 47.2114 115.738 47.3524C115.667 47.4934 115.631 47.6642 115.631 47.8649Z"/>
<path fill="url(#paint9_linear_92_64)" d="M121.142 46.1404V46.8996H118.848V46.1404H121.142ZM119.414 45.1425H120.354V49.0525C120.354 49.1845 120.373 49.2857 120.412 49.3562C120.451 49.4249 120.503 49.4719 120.567 49.4972C120.631 49.5225 120.702 49.5352 120.78 49.5352C120.839 49.5352 120.893 49.5307 120.942 49.5216C120.992 49.5126 121.03 49.5044 121.056 49.4972L121.214 50.2646C121.164 50.2826 121.092 50.3025 120.999 50.3242C120.907 50.3459 120.794 50.3586 120.661 50.3622C120.425 50.3694 120.213 50.3324 120.024 50.251C119.836 50.1679 119.686 50.0395 119.575 49.866C119.466 49.6924 119.412 49.4755 119.414 49.2152V45.1425Z"/>
<path fill="url(#paint10_linear_92_64)" d="M121.928 50.3052V46.1404H122.84V46.8345H122.881C122.954 46.5941 123.079 46.4088 123.256 46.2786C123.434 46.1467 123.637 46.0807 123.866 46.0807C123.918 46.0807 123.976 46.0834 124.04 46.0888C124.106 46.0925 124.161 46.0988 124.204 46.1078V47.0108C124.164 46.9963 124.101 46.9836 124.014 46.9728C123.929 46.9601 123.847 46.9538 123.767 46.9538C123.596 46.9538 123.442 46.9927 123.305 47.0704C123.17 47.1463 123.063 47.2521 122.985 47.3877C122.907 47.5232 122.868 47.6796 122.868 47.8567V50.3052H121.928Z"/>
<path fill="url(#paint11_linear_92_64)" d="M125.535 51.8671C125.406 51.8671 125.288 51.8562 125.179 51.8345C125.071 51.8147 124.986 51.7912 124.922 51.764L125.14 50.9994C125.277 51.041 125.399 51.0609 125.506 51.059C125.613 51.0572 125.708 51.022 125.789 50.9533C125.872 50.8864 125.942 50.7743 126 50.6171L126.08 50.392L124.633 46.1404H125.631L126.55 49.2857H126.592L127.514 46.1404H128.514L126.917 50.8096C126.842 51.0301 126.743 51.219 126.621 51.3763C126.498 51.5354 126.347 51.6565 126.169 51.7396C125.992 51.8246 125.781 51.8671 125.535 51.8671Z"/>
<path fill="url(#paint12_linear_92_64)" d="M135.394 44.7521V50.3052H134.536L132.029 46.5227H131.985V50.3052H131.021V44.7521H131.884L134.388 48.5373H134.435V44.7521H135.394Z"/>
<path fill="url(#paint13_linear_92_64)" d="M138.143 50.3866C137.753 50.3866 137.415 50.2971 137.13 50.1181C136.844 49.9392 136.622 49.6888 136.465 49.3671C136.309 49.0453 136.231 48.6693 136.231 48.2391C136.231 47.8088 136.309 47.4319 136.465 47.1084C136.622 46.7848 136.844 46.5335 137.13 46.3546C137.415 46.1756 137.753 46.0861 138.143 46.0861C138.533 46.0861 138.87 46.1756 139.156 46.3546C139.442 46.5335 139.663 46.7848 139.819 47.1084C139.976 47.4319 140.055 47.8088 140.055 48.2391C140.055 48.6693 139.976 49.0453 139.819 49.3671C139.663 49.6888 139.442 49.9392 139.156 50.1181C138.87 50.2971 138.533 50.3866 138.143 50.3866ZM138.148 49.6003C138.359 49.6003 138.536 49.5397 138.678 49.4186C138.82 49.2957 138.926 49.1312 138.995 48.9251C139.066 48.719 139.102 48.4894 139.102 48.2364C139.102 47.9815 139.066 47.751 138.995 47.5449C138.926 47.337 138.82 47.1716 138.678 47.0487C138.536 46.9258 138.359 46.8643 138.148 46.8643C137.932 46.8643 137.751 46.9258 137.608 47.0487C137.466 47.1716 137.359 47.337 137.288 47.5449C137.219 47.751 137.184 47.9815 137.184 48.2364C137.184 48.4894 137.219 48.719 137.288 48.9251C137.359 49.1312 137.466 49.2957 137.608 49.4186C137.751 49.5397 137.932 49.6003 138.148 49.6003Z"/>
<path fill="url(#paint14_linear_92_64)" d="M142.846 46.1404V46.8996H140.552V46.1404H142.846ZM141.118 45.1425H142.059V49.0525C142.059 49.1845 142.078 49.2857 142.116 49.3562C142.156 49.4249 142.208 49.4719 142.272 49.4972C142.336 49.5225 142.407 49.5352 142.485 49.5352C142.544 49.5352 142.597 49.5307 142.646 49.5216C142.696 49.5126 142.734 49.5044 142.76 49.4972L142.919 50.2646C142.868 50.2826 142.796 50.3025 142.703 50.3242C142.611 50.3459 142.499 50.3586 142.365 50.3622C142.13 50.3694 141.917 50.3324 141.729 50.251C141.54 50.1679 141.39 50.0395 141.279 49.866C141.17 49.6924 141.116 49.4755 141.118 49.2152V45.1425Z"/>
<path fill="url(#paint15_linear_92_64)" d="M144.781 50.3893C144.528 50.3893 144.3 50.3423 144.097 50.2483C143.896 50.1525 143.737 50.0115 143.619 49.8253C143.503 49.6391 143.445 49.4095 143.445 49.1366C143.445 48.9016 143.487 48.7073 143.57 48.5536C143.653 48.4 143.767 48.277 143.91 48.1848C144.054 48.0927 144.216 48.0231 144.396 47.9761C144.578 47.9272 144.766 47.892 144.96 47.8703C145.194 47.845 145.383 47.8224 145.529 47.8025C145.674 47.7808 145.78 47.7483 145.846 47.7049C145.913 47.6597 145.947 47.5901 145.947 47.4961V47.4798C145.947 47.2756 145.889 47.1174 145.773 47.0053C145.657 46.8933 145.49 46.8372 145.272 46.8372C145.041 46.8372 144.859 46.8896 144.723 46.9945C144.59 47.0993 144.5 47.2232 144.453 47.366L143.575 47.2358C143.644 46.9827 143.759 46.7712 143.918 46.6013C144.077 46.4296 144.272 46.3012 144.503 46.2163C144.733 46.1295 144.988 46.0861 145.266 46.0861C145.459 46.0861 145.65 46.1096 145.841 46.1566C146.031 46.2036 146.205 46.2814 146.363 46.3898C146.52 46.4965 146.647 46.642 146.742 46.8264C146.839 47.0108 146.887 47.2412 146.887 47.5178V50.3052H145.983V49.7331H145.952C145.895 49.8488 145.815 49.9573 145.711 50.0585C145.608 50.1579 145.479 50.2384 145.324 50.2998C145.169 50.3595 144.988 50.3893 144.781 50.3893ZM145.025 49.668C145.214 49.668 145.377 49.6292 145.516 49.5514C145.654 49.4719 145.761 49.3671 145.835 49.2369C145.912 49.1068 145.95 48.9649 145.95 48.8112V48.3204C145.92 48.3457 145.87 48.3692 145.799 48.3909C145.73 48.4126 145.652 48.4316 145.565 48.4479C145.479 48.4641 145.393 48.4786 145.308 48.4912C145.223 48.5039 145.149 48.5147 145.087 48.5238C144.947 48.5437 144.821 48.5762 144.71 48.6214C144.6 48.6666 144.512 48.7299 144.448 48.8112C144.384 48.8907 144.352 48.9938 144.352 49.1203C144.352 49.3011 144.415 49.4376 144.542 49.5298C144.668 49.6219 144.829 49.668 145.025 49.668Z"/>
<path fill="url(#paint16_linear_92_64)" d="M149.826 46.1404V46.8996H147.532V46.1404H149.826ZM148.098 45.1425H149.039V49.0525C149.039 49.1845 149.058 49.2857 149.096 49.3562C149.136 49.4249 149.187 49.4719 149.252 49.4972C149.316 49.5225 149.387 49.5352 149.465 49.5352C149.523 49.5352 149.577 49.5307 149.626 49.5216C149.676 49.5126 149.714 49.5044 149.74 49.4972L149.898 50.2646C149.848 50.2826 149.776 50.3025 149.683 50.3242C149.591 50.3459 149.478 50.3586 149.345 50.3622C149.11 50.3694 148.897 50.3324 148.709 50.251C148.52 50.1679 148.37 50.0395 148.259 49.866C148.15 49.6924 148.096 49.4755 148.098 49.2152V45.1425Z"/>
<path fill="url(#paint17_linear_92_64)" d="M150.612 50.3052V46.1404H151.553V50.3052H150.612ZM151.085 45.5493C150.936 45.5493 150.808 45.4977 150.701 45.3947C150.593 45.2898 150.539 45.1642 150.539 45.0178C150.539 44.8696 150.593 44.7439 150.701 44.6409C150.808 44.536 150.936 44.4836 151.085 44.4836C151.236 44.4836 151.364 44.536 151.47 44.6409C151.577 44.7439 151.631 44.8696 151.631 45.0178C151.631 45.1642 151.577 45.2898 151.47 45.3947C151.364 45.4977 151.236 45.5493 151.085 45.5493Z"/>
<path fill="url(#paint18_linear_92_64)" d="M154.26 50.3866C153.871 50.3866 153.533 50.2971 153.247 50.1181C152.961 49.9392 152.74 49.6888 152.582 49.3671C152.426 49.0453 152.348 48.6693 152.348 48.2391C152.348 47.8088 152.426 47.4319 152.582 47.1084C152.74 46.7848 152.961 46.5335 153.247 46.3546C153.533 46.1756 153.871 46.0861 154.26 46.0861C154.65 46.0861 154.988 46.1756 155.274 46.3546C155.559 46.5335 155.78 46.7848 155.936 47.1084C156.094 47.4319 156.172 47.8088 156.172 48.2391C156.172 48.6693 156.094 49.0453 155.936 49.3671C155.78 49.6888 155.559 49.9392 155.274 50.1181C154.988 50.2971 154.65 50.3866 154.26 50.3866ZM154.266 49.6003C154.477 49.6003 154.653 49.5397 154.796 49.4186C154.938 49.2957 155.043 49.1312 155.112 48.9251C155.183 48.719 155.219 48.4894 155.219 48.2364C155.219 47.9815 155.183 47.751 155.112 47.5449C155.043 47.337 154.938 47.1716 154.796 47.0487C154.653 46.9258 154.477 46.8643 154.266 46.8643C154.049 46.8643 153.869 46.9258 153.725 47.0487C153.583 47.1716 153.477 47.337 153.406 47.5449C153.336 47.751 153.302 47.9815 153.302 48.2364C153.302 48.4894 153.336 48.719 153.406 48.9251C153.477 49.1312 153.583 49.2957 153.725 49.4186C153.869 49.5397 154.049 49.6003 154.266 49.6003Z"/>
<path fill="url(#paint19_linear_92_64)" d="M157.911 47.8649V50.3052H156.971V46.1404H157.869V46.8481H157.916C158.008 46.6149 158.154 46.4296 158.355 46.2922C158.558 46.1548 158.808 46.0861 159.106 46.0861C159.381 46.0861 159.621 46.1476 159.826 46.2705C160.032 46.3934 160.191 46.5715 160.304 46.8047C160.418 47.0379 160.474 47.3208 160.473 47.6534V50.3052H159.532V47.8052C159.532 47.5268 159.463 47.309 159.324 47.1518C159.187 46.9945 158.998 46.9159 158.755 46.9159C158.591 46.9159 158.444 46.9538 158.316 47.0297C158.19 47.1039 158.09 47.2114 158.018 47.3524C157.947 47.4934 157.911 47.6642 157.911 47.8649Z"/>
<path fill="url(#paint20_linear_92_64)" d="M166.176 46.2786C166.152 46.0418 166.05 45.8575 165.87 45.7255C165.691 45.5935 165.459 45.5276 165.173 45.5276C164.973 45.5276 164.8 45.5592 164.657 45.6225C164.513 45.6857 164.403 45.7716 164.327 45.8801C164.25 45.9885 164.211 46.1123 164.21 46.2515C164.21 46.3672 164.235 46.4675 164.285 46.5525C164.337 46.6375 164.407 46.7098 164.495 46.7694C164.584 46.8273 164.682 46.8761 164.789 46.9159C164.896 46.9556 165.005 46.9891 165.114 47.0162L165.613 47.1463C165.813 47.1951 166.007 47.2611 166.192 47.3443C166.379 47.4274 166.546 47.5323 166.693 47.6588C166.842 47.7853 166.96 47.9381 167.047 48.1171C167.133 48.296 167.176 48.5057 167.176 48.7461C167.176 49.0715 167.097 49.358 166.937 49.6057C166.778 49.8515 166.548 50.044 166.246 50.1832C165.947 50.3206 165.584 50.3893 165.158 50.3893C164.744 50.3893 164.385 50.3224 164.08 50.1887C163.777 50.0549 163.539 49.8597 163.368 49.603C163.198 49.3463 163.106 49.0335 163.093 48.6648H164.041C164.055 48.8582 164.112 49.0191 164.212 49.1474C164.313 49.2758 164.443 49.3716 164.605 49.4348C164.767 49.4981 164.949 49.5298 165.15 49.5298C165.36 49.5298 165.543 49.4972 165.701 49.4321C165.86 49.3652 165.985 49.2731 166.075 49.1556C166.165 49.0363 166.211 48.8971 166.213 48.738C166.211 48.5934 166.17 48.4741 166.091 48.3801C166.011 48.2843 165.899 48.2047 165.755 48.1415C165.613 48.0764 165.447 48.0185 165.257 47.9679L164.651 47.8052C164.213 47.6877 163.867 47.5097 163.612 47.2711C163.359 47.0306 163.233 46.7116 163.233 46.3139C163.233 45.9867 163.318 45.7002 163.487 45.4543C163.659 45.2085 163.892 45.0178 164.186 44.8822C164.481 44.7448 164.814 44.6761 165.186 44.6761C165.564 44.6761 165.895 44.7448 166.179 44.8822C166.465 45.0178 166.689 45.2067 166.852 45.4489C167.015 45.6893 167.099 45.9659 167.104 46.2786H166.176Z"/>
<path fill="url(#paint21_linear_92_64)" d="M168.579 51.8671C168.451 51.8671 168.332 51.8562 168.223 51.8345C168.115 51.8147 168.03 51.7912 167.966 51.764L168.184 50.9994C168.321 51.041 168.443 51.0609 168.55 51.059C168.658 51.0572 168.752 51.022 168.833 50.9533C168.916 50.8864 168.987 50.7743 169.044 50.6171L169.124 50.392L167.677 46.1404H168.675L169.594 49.2857H169.636L170.558 46.1404H171.559L169.961 50.8096C169.886 51.0301 169.788 51.219 169.665 51.3763C169.542 51.5354 169.391 51.6565 169.213 51.7396C169.036 51.8246 168.825 51.8671 168.579 51.8671Z"/>
<path fill="url(#paint22_linear_92_64)" d="M175.363 47.2412L174.506 47.3388C174.482 47.2485 174.439 47.1635 174.379 47.084C174.32 47.0044 174.24 46.9403 174.14 46.8914C174.039 46.8426 173.916 46.8182 173.771 46.8182C173.575 46.8182 173.41 46.8625 173.277 46.9511C173.145 47.0397 173.08 47.1545 173.082 47.2955C173.08 47.4166 173.123 47.5151 173.209 47.591C173.298 47.6669 173.443 47.7293 173.646 47.7781L174.327 47.93C174.704 48.0149 174.985 48.1496 175.168 48.334C175.354 48.5184 175.447 48.7597 175.449 49.0579C175.447 49.3201 175.374 49.5514 175.228 49.7521C175.084 49.9509 174.884 50.1064 174.628 50.2185C174.372 50.3306 174.077 50.3866 173.745 50.3866C173.256 50.3866 172.863 50.2799 172.565 50.0666C172.267 49.8515 172.09 49.5523 172.033 49.1691L172.95 49.0769C172.991 49.2649 173.08 49.4068 173.215 49.5026C173.35 49.5984 173.526 49.6463 173.742 49.6463C173.965 49.6463 174.145 49.5984 174.28 49.5026C174.417 49.4068 174.485 49.2884 174.485 49.1474C174.485 49.0281 174.441 48.9296 174.353 48.8519C174.266 48.7741 174.131 48.7145 173.947 48.6729L173.267 48.5238C172.884 48.4406 172.601 48.3005 172.417 48.1035C172.234 47.9047 172.143 47.6534 172.144 47.3497C172.143 47.093 172.209 46.8707 172.344 46.6827C172.481 46.4929 172.671 46.3464 172.913 46.2434C173.158 46.1386 173.439 46.0861 173.758 46.0861C174.225 46.0861 174.593 46.1901 174.862 46.398C175.132 46.6058 175.299 46.8869 175.363 47.2412Z"/>
<path fill="url(#paint23_linear_92_64)" d="M178.217 46.1404V46.8996H175.923V46.1404H178.217ZM176.489 45.1425H177.43V49.0525C177.43 49.1845 177.449 49.2857 177.487 49.3562C177.527 49.4249 177.579 49.4719 177.643 49.4972C177.707 49.5225 177.778 49.5352 177.856 49.5352C177.915 49.5352 177.968 49.5307 178.017 49.5216C178.067 49.5126 178.105 49.5044 178.131 49.4972L178.29 50.2646C178.239 50.2826 178.168 50.3025 178.074 50.3242C177.982 50.3459 177.87 50.3586 177.736 50.3622C177.501 50.3694 177.289 50.3324 177.1 50.251C176.911 50.1679 176.761 50.0395 176.65 49.866C176.541 49.6924 176.488 49.4755 176.489 49.2152V45.1425Z"/>
<path fill="url(#paint24_linear_92_64)" d="M180.727 50.3866C180.327 50.3866 179.982 50.2998 179.691 50.1263C179.401 49.9509 179.179 49.7033 179.023 49.3833C178.867 49.0616 178.789 48.6829 178.789 48.2472C178.789 47.8188 178.867 47.4428 179.023 47.1192C179.181 46.7938 179.401 46.5408 179.683 46.36C179.965 46.1774 180.297 46.0861 180.678 46.0861C180.924 46.0861 181.156 46.1277 181.374 46.2109C181.594 46.2922 181.788 46.4187 181.956 46.5905C182.126 46.7622 182.259 46.9809 182.356 47.2467C182.453 47.5106 182.502 47.8251 182.502 48.1903V48.4912H179.231V47.8296H181.6C181.598 47.6416 181.559 47.4744 181.483 47.328C181.407 47.1798 181.3 47.0632 181.164 46.9782C181.029 46.8933 180.871 46.8508 180.691 46.8508C180.499 46.8508 180.33 46.8996 180.184 46.9972C180.039 47.093 179.925 47.2195 179.844 47.3768C179.764 47.5323 179.724 47.7031 179.722 47.8893V48.4668C179.722 48.7091 179.764 48.917 179.849 49.0905C179.934 49.2622 180.053 49.3942 180.205 49.4864C180.357 49.5768 180.536 49.6219 180.74 49.6219C180.877 49.6219 181.001 49.6021 181.112 49.5623C181.223 49.5207 181.319 49.4602 181.4 49.3806C181.481 49.3011 181.543 49.2026 181.584 49.0851L182.463 49.1881C182.407 49.4303 182.301 49.6418 182.146 49.8226C181.991 50.0016 181.794 50.1407 181.553 50.2402C181.313 50.3378 181.037 50.3866 180.727 50.3866Z"/>
<path fill="url(#paint25_linear_92_64)" d="M183.297 50.3052V46.1404H184.196V46.8481H184.243C184.326 46.6095 184.464 46.4233 184.656 46.2895C184.848 46.1539 185.078 46.0861 185.344 46.0861C185.614 46.0861 185.842 46.1548 186.028 46.2922C186.215 46.4278 186.346 46.6131 186.422 46.8481H186.464C186.552 46.6167 186.701 46.4323 186.911 46.2949C187.122 46.1557 187.372 46.0861 187.662 46.0861C188.029 46.0861 188.328 46.2072 188.561 46.4495C188.793 46.6917 188.909 47.0451 188.909 47.5097V50.3052H187.966V47.6615C187.966 47.403 187.9 47.2141 187.768 47.0948C187.637 46.9737 187.475 46.9131 187.285 46.9131C187.058 46.9131 186.881 46.9873 186.752 47.1355C186.626 47.2819 186.563 47.4726 186.563 47.7076V50.3052H185.64V47.6208C185.64 47.4057 185.578 47.234 185.453 47.1057C185.33 46.9773 185.169 46.9131 184.97 46.9131C184.835 46.9131 184.712 46.9493 184.601 47.0216C184.49 47.0921 184.402 47.1924 184.336 47.3226C184.27 47.4509 184.238 47.601 184.238 47.7727V50.3052H183.297Z"/>
<path fill="url(#paint26_linear_92_64)" d="M83.1969 39.5255V7.18645H91.6086V32.4514H104.135V39.5255H83.1969Z"/>
<path fill="url(#paint27_linear_92_64)" d="M107.536 39.5255V7.18645H129.866V14.2606H115.947V19.8189H128.716V26.8931H115.947V32.4514H129.806V39.5255H107.536Z"/>
<path fill="url(#paint28_linear_92_64)" d="M160.846 7.18645V39.5255H153.827L142.631 22.5349H142.45V39.5255H134.038V7.18645H141.179L152.193 24.1139H152.435V7.18645H160.846Z"/>
<path fill="url(#paint29_linear_92_64)" d="M181.528 17.2924C181.447 16.2397 181.069 15.4186 180.393 14.8291C179.727 14.2396 178.714 13.9448 177.352 13.9448C176.485 13.9448 175.774 14.0553 175.219 14.2764C174.674 14.487 174.271 14.7765 174.009 15.1449C173.746 15.5133 173.61 15.9344 173.6 16.4081C173.58 16.7976 173.646 17.1503 173.797 17.4661C173.958 17.7714 174.21 18.0504 174.553 18.303C174.896 18.5451 175.335 18.7662 175.87 18.9662C176.404 19.1662 177.039 19.3452 177.776 19.5031L180.317 20.0716C182.032 20.4505 183.5 20.9506 184.72 21.5717C185.94 22.1928 186.939 22.9244 187.716 23.7666C188.492 24.5982 189.062 25.5351 189.425 26.5773C189.798 27.6195 189.99 28.7564 190 29.988C189.99 32.1145 189.481 33.9146 188.472 35.3884C187.463 36.8622 186.021 37.9833 184.145 38.7518C182.279 39.5203 180.035 39.9045 177.413 39.9045C174.72 39.9045 172.37 39.4887 170.363 38.6571C168.366 37.8254 166.812 36.5464 165.703 34.82C164.603 33.083 164.049 30.8618 164.039 28.1563H172.027C172.077 29.1459 172.314 29.9775 172.738 30.6512C173.161 31.325 173.757 31.8355 174.523 32.1829C175.3 32.5303 176.223 32.704 177.292 32.704C178.189 32.704 178.941 32.5882 179.546 32.3566C180.151 32.125 180.61 31.804 180.923 31.3934C181.235 30.9828 181.397 30.5144 181.407 29.988C181.397 29.4933 181.24 29.0617 180.938 28.6932C180.645 28.3142 180.161 27.9774 179.485 27.6826C178.81 27.3773 177.897 27.0931 176.747 26.8299L173.661 26.1351C170.917 25.514 168.754 24.4771 167.17 23.0244C165.597 21.5611 164.815 19.5663 164.825 17.0398C164.815 14.987 165.34 13.1921 166.399 11.6552C167.468 10.1077 168.945 8.90236 170.832 8.03914C172.728 7.17592 174.901 6.74431 177.352 6.74431C179.853 6.74431 182.017 7.18118 183.842 8.05493C185.668 8.92868 187.075 10.1603 188.063 11.7499C189.062 13.329 189.566 15.1765 189.576 17.2924H181.528Z"/>
<path fill="url(#paint30_linear_92_64)" d="M1.8979 38.7414C1.26806 27.6975 0.636552 16.6395 0 5.48868C0.3779 6.28454 0.693656 7.01204 1.05812 7.71324C2.81661 11.0685 5.40649 13.5683 8.49015 15.5562C11.599 17.5616 14.9766 18.95 18.3844 20.2735C22.1701 21.7373 25.9777 23.1747 29.7281 24.7314C32.5899 25.9154 35.2844 27.4994 37.7379 29.4399C37.8453 29.5036 37.9346 29.5959 37.9965 29.7074C38.0585 29.8189 38.091 29.9456 38.0906 30.0745C38.0806 39.9638 38.0778 49.8525 38.0822 59.7406C38.0822 59.8019 38.0822 59.8633 38.0705 59.9772C38.0201 59.9436 37.9738 59.9035 37.9328 59.858C36.1575 56.9218 33.796 54.5429 31.2616 52.3499C25.7905 47.5737 19.6438 43.7105 13.0401 40.8976C10.6249 39.8773 8.14752 39.0411 5.54253 38.7571C4.36684 38.6292 3.16596 38.7414 1.8979 38.7414Z"/>
<path fill="url(#paint31_linear_92_64)" d="M80.2576 5.57106C79.6239 16.636 78.9913 27.7074 78.3597 38.7852C77.8088 38.7308 77.2983 38.6484 76.786 38.6344C74.8612 38.5871 72.9919 38.9605 71.1511 39.5109C66.3677 40.9273 61.9639 43.2273 57.723 45.8883C54.0954 48.1343 50.6826 50.7383 47.5315 53.6647C45.3363 55.7262 44.4865 56.7377 42.209 60C42.1891 59.8764 42.1756 59.7517 42.1687 59.6266C42.1687 49.7841 42.1659 39.9404 42.1603 30.0955C42.1572 29.9672 42.1866 29.8403 42.2456 29.7276C42.3046 29.615 42.391 29.5206 42.4962 29.454C45.1483 27.3777 48.0617 25.6925 51.1543 24.4456C54.6243 23.0152 58.1412 21.7074 61.6431 20.3576C64.9149 19.0972 68.1581 17.779 71.1763 15.9278C74.4464 13.9224 77.2227 11.384 79.1055 7.89729C79.3087 7.52215 79.4985 7.13649 79.6799 6.74907C79.8613 6.36166 80.0158 5.96724 80.1837 5.57456L80.2576 5.57106Z"/>
<path fill="url(#paint32_linear_92_64)" d="M4.0595 3.12557C4.61293 4.87127 5.40489 6.52445 6.41088 8.03397C8.35581 10.9317 10.9356 13.0896 13.8127 14.9005C16.9316 16.8656 20.2655 18.3714 23.5944 19.893C25.274 20.6591 26.9401 21.4357 28.581 22.2929C28.1595 22.1404 27.7412 21.9861 27.318 21.8371C23.5726 20.5083 19.8104 19.2321 16.0885 17.8368C12.7411 16.5834 9.53821 14.9934 6.74343 12.6444C5.80288 11.8538 4.96814 10.9264 4.09645 10.0482C3.98431 9.9308 3.91635 9.77525 3.90498 9.60992C3.89323 7.45022 3.90498 5.28877 3.90498 3.12382L4.0595 3.12557Z"/>
<path fill="url(#paint33_linear_92_64)" d="M76.0838 3.06951C76.0838 5.23096 76.0838 7.39241 76.0738 9.55561C76.0595 9.7515 75.9826 9.9367 75.8554 10.0815C73.9374 12.3604 71.5994 14.0731 69.0415 15.4773C65.4707 17.4371 61.6514 18.7396 57.8422 20.0561C55.8116 20.7573 53.7861 21.4743 51.7588 22.1825C51.7258 22.1948 51.6901 22.1977 51.6556 22.191C51.6211 22.1842 51.5889 22.1679 51.5623 22.1439C52.2022 21.8389 52.8422 21.5321 53.4837 21.2288C56.643 19.737 59.8291 18.3031 62.9564 16.7394C65.7495 15.337 68.3713 13.6401 70.6824 11.4471C73.0307 9.25606 74.8052 6.47658 75.8386 3.37102C75.8722 3.2711 75.9075 3.17293 75.9428 3.07476L76.0838 3.06951Z"/>
<path fill="url(#paint34_linear_92_64)" d="M8.51868 2.02295C8.86467 2.96782 9.16531 3.91444 9.55161 4.82775C10.8432 7.8657 12.9107 10.2428 15.4015 12.2605C17.8923 14.2782 20.6803 15.8804 23.4902 17.4003C25.6132 18.5485 27.7429 19.6792 29.8726 20.8274C29.9027 20.8416 29.9296 20.8624 29.9513 20.8884C29.973 20.9145 29.9891 20.9451 29.9985 20.9782L27.4607 19.8966C24.2948 18.538 21.1036 17.2425 17.9729 15.8033C14.901 14.4009 12.0541 12.5813 9.66078 10.078C9.32487 9.71687 9.01751 9.30842 8.66984 8.95256C8.23484 8.50905 8.10047 8.0077 8.15422 7.37486C8.30034 5.59031 8.39775 3.8075 8.51868 2.02295Z"/>
<path fill="url(#paint35_linear_92_64)" d="M71.4618 1.98968C71.5894 3.9285 71.7036 5.80772 71.8413 7.68693C71.8568 7.86853 71.8358 8.05149 71.7797 8.22414C71.7236 8.3968 71.6336 8.55534 71.5155 8.68965C69.8107 10.8529 67.7298 12.5375 65.4321 13.9487C62.5567 15.7157 59.4781 17.0182 56.3911 18.3014C54.3488 19.1521 52.3064 20.0064 50.2641 20.8642C50.1676 20.913 50.0588 20.9283 49.9534 20.9081C50.6739 20.5119 51.3944 20.1192 52.1116 19.7195C55.2372 17.9665 58.3982 16.2942 61.4768 14.4605C63.9477 13.0111 66.152 11.1147 67.9868 8.85969C69.5284 6.95654 70.6622 4.73131 71.3123 2.33327C71.3324 2.25964 71.3543 2.18602 71.3794 2.11239C71.4034 2.06907 71.431 2.02801 71.4618 1.98968Z"/>
<path fill="url(#paint36_linear_92_64)" d="M12.4036 0C12.5414 0.56096 12.664 1.12718 12.8168 1.68288C13.6834 4.82426 15.3949 7.40818 17.6354 9.64151C19.7954 11.8012 22.2593 13.5279 24.7836 15.1722C26.6311 16.3818 28.5022 17.5756 30.3614 18.7782C30.5087 18.8644 30.6365 18.9828 30.736 19.1252C30.081 18.7852 29.4242 18.4503 28.7743 18.1032C25.6822 16.4554 22.5599 14.8742 19.5149 13.1352C16.7604 11.5575 14.325 9.53808 12.3616 6.93137C11.7688 6.14602 11.5538 5.39574 11.7503 4.39477C12.0341 2.9503 12.1601 1.47252 12.3549 0.012271L12.4036 0Z"/>
<path fill="url(#paint37_linear_92_64)" d="M67.6291 0.0806518C67.8743 1.87047 68.1329 3.66729 68.353 5.46938C68.3612 5.67973 68.3021 5.88695 68.185 6.05839C66.7759 8.27944 64.9283 10.0377 62.8558 11.5611C60.1685 13.542 57.2108 15.0338 54.2682 16.5448L49.9014 18.7869C49.7721 18.8659 49.622 18.8997 49.4731 18.8833C50.3296 18.3259 51.1829 17.7649 52.0428 17.2145C54.9215 15.3633 57.8389 13.57 60.4859 11.3507C63.0523 9.19801 65.2575 6.72628 66.5323 3.49725C66.9656 2.39461 67.2629 1.22711 67.6291 0.0806518Z"/>
<path fill="url(#paint38_linear_92_64)" d="M36.5125 12.9774C35.2036 14.09 34.3674 15.7853 34.3674 17.6845C34.3674 19.7375 35.3445 21.5521 36.8395 22.65C34.6541 21.7041 33.1705 19.8593 33.1705 17.7383C33.1705 15.7248 34.5075 13.9604 36.5125 12.9774Z"/>
<path fill="url(#paint39_linear_92_64)" d="M43.8489 12.9776C45.8539 13.9606 47.1911 15.7248 47.1911 17.7383C47.1911 19.8593 45.7073 21.7041 43.5219 22.65C45.017 21.5521 45.9942 19.7375 45.9942 17.6845C45.9942 15.7853 45.1578 14.0902 43.8489 12.9776Z"/>
<path fill="url(#paint40_linear_92_64)" d="M45.1393 17.5954C45.1393 20.5029 42.881 22.8599 40.0953 22.8599C37.3096 22.8599 35.0513 20.5029 35.0513 17.5954C35.0513 14.6879 37.3096 12.3308 40.0953 12.3308C42.881 12.3308 45.1393 14.6879 45.1393 17.5954Z"/>
<defs>
<linearGradient gradientUnits="userSpaceOnUse" y2="-72.1869" x2="96.4989" y1="75.9613" x1="96.4989" id="paint0_linear_92_64">
<stop stop-color="#1D398A"/>
<stop stop-color="#3760D5" offset="1"/>
</linearGradient>
<linearGradient gradientUnits="userSpaceOnUse" y2="-72.1869" x2="96.4989" y1="75.9613" x1="96.4989" id="paint1_linear_92_64">
<stop stop-color="#1D398A"/>
<stop stop-color="#3760D5" offset="1"/>
</linearGradient>
<linearGradient gradientUnits="userSpaceOnUse" y2="-72.1869" x2="96.4989" y1="75.9613" x1="96.4989" id="paint2_linear_92_64">
<stop stop-color="#1D398A"/>
<stop stop-color="#3760D5" offset="1"/>
</linearGradient>
<linearGradient gradientUnits="userSpaceOnUse" y2="-72.1869" x2="96.4989" y1="75.9613" x1="96.4989" id="paint3_linear_92_64">
<stop stop-color="#1D398A"/>
<stop stop-color="#3760D5" offset="1"/>
</linearGradient>
<linearGradient gradientUnits="userSpaceOnUse" y2="-72.1869" x2="96.4989" y1="75.9613" x1="96.4989" id="paint4_linear_92_64">
<stop stop-color="#1D398A"/>
<stop stop-color="#3760D5" offset="1"/>
</linearGradient>
<linearGradient gradientUnits="userSpaceOnUse" y2="-72.1869" x2="96.4989" y1="75.9613" x1="96.4989" id="paint5_linear_92_64">
<stop stop-color="#1D398A"/>
<stop stop-color="#3760D5" offset="1"/>
</linearGradient>
<linearGradient gradientUnits="userSpaceOnUse" y2="-72.1869" x2="96.4989" y1="75.9613" x1="96.4989" id="paint6_linear_92_64">
<stop stop-color="#1D398A"/>
<stop stop-color="#3760D5" offset="1"/>
</linearGradient>
<linearGradient gradientUnits="userSpaceOnUse" y2="-72.1869" x2="96.4989" y1="75.9613" x1="96.4989" id="paint7_linear_92_64">
<stop stop-color="#1D398A"/>
<stop stop-color="#3760D5" offset="1"/>
</linearGradient>
<linearGradient gradientUnits="userSpaceOnUse" y2="-72.1869" x2="96.4989" y1="75.9613" x1="96.4989" id="paint8_linear_92_64">
<stop stop-color="#1D398A"/>
<stop stop-color="#3760D5" offset="1"/>
</linearGradient>
<linearGradient gradientUnits="userSpaceOnUse" y2="-72.1869" x2="96.4989" y1="75.9613" x1="96.4989" id="paint9_linear_92_64">
<stop stop-color="#1D398A"/>
<stop stop-color="#3760D5" offset="1"/>
</linearGradient>
<linearGradient gradientUnits="userSpaceOnUse" y2="-72.1869" x2="96.4989" y1="75.9613" x1="96.4989" id="paint10_linear_92_64">
<stop stop-color="#1D398A"/>
<stop stop-color="#3760D5" offset="1"/>
</linearGradient>
<linearGradient gradientUnits="userSpaceOnUse" y2="-72.1869" x2="96.4989" y1="75.9613" x1="96.4989" id="paint11_linear_92_64">
<stop stop-color="#1D398A"/>
<stop stop-color="#3760D5" offset="1"/>
</linearGradient>
<linearGradient gradientUnits="userSpaceOnUse" y2="-72.1869" x2="96.4989" y1="75.9613" x1="96.4989" id="paint12_linear_92_64">
<stop stop-color="#1D398A"/>
<stop stop-color="#3760D5" offset="1"/>
</linearGradient>
<linearGradient gradientUnits="userSpaceOnUse" y2="-72.1869" x2="96.4989" y1="75.9613" x1="96.4989" id="paint13_linear_92_64">
<stop stop-color="#1D398A"/>
<stop stop-color="#3760D5" offset="1"/>
</linearGradient>
<linearGradient gradientUnits="userSpaceOnUse" y2="-72.1869" x2="96.4989" y1="75.9613" x1="96.4989" id="paint14_linear_92_64">
<stop stop-color="#1D398A"/>
<stop stop-color="#3760D5" offset="1"/>
</linearGradient>
<linearGradient gradientUnits="userSpaceOnUse" y2="-72.1869" x2="96.4989" y1="75.9613" x1="96.4989" id="paint15_linear_92_64">
<stop stop-color="#1D398A"/>
<stop stop-color="#3760D5" offset="1"/>
</linearGradient>
<linearGradient gradientUnits="userSpaceOnUse" y2="-72.1869" x2="96.4989" y1="75.9613" x1="96.4989" id="paint16_linear_92_64">
<stop stop-color="#1D398A"/>
<stop stop-color="#3760D5" offset="1"/>
</linearGradient>
<linearGradient gradientUnits="userSpaceOnUse" y2="-72.1869" x2="96.4989" y1="75.9613" x1="96.4989" id="paint17_linear_92_64">
<stop stop-color="#1D398A"/>
<stop stop-color="#3760D5" offset="1"/>
</linearGradient>
<linearGradient gradientUnits="userSpaceOnUse" y2="-72.1869" x2="96.4989" y1="75.9613" x1="96.4989" id="paint18_linear_92_64">
<stop stop-color="#1D398A"/>
<stop stop-color="#3760D5" offset="1"/>
</linearGradient>
<linearGradient gradientUnits="userSpaceOnUse" y2="-72.1869" x2="96.4989" y1="75.9613" x1="96.4989" id="paint19_linear_92_64">
<stop stop-color="#1D398A"/>
<stop stop-color="#3760D5" offset="1"/>
</linearGradient>
<linearGradient gradientUnits="userSpaceOnUse" y2="-72.1869" x2="96.4989" y1="75.9613" x1="96.4989" id="paint20_linear_92_64">
<stop stop-color="#1D398A"/>
<stop stop-color="#3760D5" offset="1"/>
</linearGradient>
<linearGradient gradientUnits="userSpaceOnUse" y2="-72.1869" x2="96.4989" y1="75.9613" x1="96.4989" id="paint21_linear_92_64">
<stop stop-color="#1D398A"/>
<stop stop-color="#3760D5" offset="1"/>
</linearGradient>
<linearGradient gradientUnits="userSpaceOnUse" y2="-72.1869" x2="96.4989" y1="75.9613" x1="96.4989" id="paint22_linear_92_64">
<stop stop-color="#1D398A"/>
<stop stop-color="#3760D5" offset="1"/>
</linearGradient>
<linearGradient gradientUnits="userSpaceOnUse" y2="-72.1869" x2="96.4989" y1="75.9613" x1="96.4989" id="paint23_linear_92_64">
<stop stop-color="#1D398A"/>
<stop stop-color="#3760D5" offset="1"/>
</linearGradient>
<linearGradient gradientUnits="userSpaceOnUse" y2="-72.1869" x2="96.4989" y1="75.9613" x1="96.4989" id="paint24_linear_92_64">
<stop stop-color="#1D398A"/>
<stop stop-color="#3760D5" offset="1"/>
</linearGradient>
<linearGradient gradientUnits="userSpaceOnUse" y2="-72.1869" x2="96.4989" y1="75.9613" x1="96.4989" id="paint25_linear_92_64">
<stop stop-color="#1D398A"/>
<stop stop-color="#3760D5" offset="1"/>
</linearGradient>
<linearGradient gradientUnits="userSpaceOnUse" y2="-72.1869" x2="96.4989" y1="75.9613" x1="96.4989" id="paint26_linear_92_64">
<stop stop-color="#1D398A"/>
<stop stop-color="#3760D5" offset="1"/>
</linearGradient>
<linearGradient gradientUnits="userSpaceOnUse" y2="-72.1869" x2="96.4989" y1="75.9613" x1="96.4989" id="paint27_linear_92_64">
<stop stop-color="#1D398A"/>
<stop stop-color="#3760D5" offset="1"/>
</linearGradient>
<linearGradient gradientUnits="userSpaceOnUse" y2="-72.1869" x2="96.4989" y1="75.9613" x1="96.4989" id="paint28_linear_92_64">
<stop stop-color="#1D398A"/>
<stop stop-color="#3760D5" offset="1"/>
</linearGradient>
<linearGradient gradientUnits="userSpaceOnUse" y2="-72.1869" x2="96.4989" y1="75.9613" x1="96.4989" id="paint29_linear_92_64">
<stop stop-color="#1D398A"/>
<stop stop-color="#3760D5" offset="1"/>
</linearGradient>
<linearGradient gradientUnits="userSpaceOnUse" y2="-72.1869" x2="96.4989" y1="75.9613" x1="96.4989" id="paint30_linear_92_64">
<stop stop-color="#1D398A"/>
<stop stop-color="#3760D5" offset="1"/>
</linearGradient>
<linearGradient gradientUnits="userSpaceOnUse" y2="-72.1869" x2="96.4989" y1="75.9613" x1="96.4989" id="paint31_linear_92_64">
<stop stop-color="#1D398A"/>
<stop stop-color="#3760D5" offset="1"/>
</linearGradient>
<linearGradient gradientUnits="userSpaceOnUse" y2="-72.1869" x2="96.4989" y1="75.9613" x1="96.4989" id="paint32_linear_92_64">
<stop stop-color="#1D398A"/>
<stop stop-color="#3760D5" offset="1"/>
</linearGradient>
<linearGradient gradientUnits="userSpaceOnUse" y2="-72.1869" x2="96.4989" y1="75.9613" x1="96.4989" id="paint33_linear_92_64">
<stop stop-color="#1D398A"/>
<stop stop-color="#3760D5" offset="1"/>
</linearGradient>
<linearGradient gradientUnits="userSpaceOnUse" y2="-72.1869" x2="96.4989" y1="75.9613" x1="96.4989" id="paint34_linear_92_64">
<stop stop-color="#1D398A"/>
<stop stop-color="#3760D5" offset="1"/>
</linearGradient>
<linearGradient gradientUnits="userSpaceOnUse" y2="-72.1869" x2="96.4989" y1="75.9613" x1="96.4989" id="paint35_linear_92_64">
<stop stop-color="#1D398A"/>
<stop stop-color="#3760D5" offset="1"/>
</linearGradient>
<linearGradient gradientUnits="userSpaceOnUse" y2="-72.1869" x2="96.4989" y1="75.9613" x1="96.4989" id="paint36_linear_92_64">
<stop stop-color="#1D398A"/>
<stop stop-color="#3760D5" offset="1"/>
</linearGradient>
<linearGradient gradientUnits="userSpaceOnUse" y2="-72.1869" x2="96.4989" y1="75.9613" x1="96.4989" id="paint37_linear_92_64">
<stop stop-color="#1D398A"/>
<stop stop-color="#3760D5" offset="1"/>
</linearGradient>
<linearGradient gradientUnits="userSpaceOnUse" y2="-72.1869" x2="96.4989" y1="75.9613" x1="96.4989" id="paint38_linear_92_64">
<stop stop-color="#1D398A"/>
<stop stop-color="#3760D5" offset="1"/>
</linearGradient>
<linearGradient gradientUnits="userSpaceOnUse" y2="-72.1869" x2="96.4989" y1="75.9613" x1="96.4989" id="paint39_linear_92_64">
<stop stop-color="#1D398A"/>
<stop stop-color="#3760D5" offset="1"/>
</linearGradient>
<linearGradient gradientUnits="userSpaceOnUse" y2="-72.1869" x2="96.4989" y1="75.9613" x1="96.4989" id="paint40_linear_92_64">
<stop stop-color="#1D398A"/>
<stop stop-color="#3760D5" offset="1"/>
</linearGradient>
</defs>
</svg>